<?xml version="1.0" encoding="UTF-8" standalone="no"?>
<!-- Created with Inkscape (http://www.inkscape.org/) -->

<svg
   xmlns:dc="http://purl.org/dc/elements/1.1/"
   xmlns:cc="http://creativecommons.org/ns#"
   xmlns:rdf="http://www.w3.org/1999/02/22-rdf-syntax-ns#"
   xmlns:svg="http://www.w3.org/2000/svg"
   xmlns="http://www.w3.org/2000/svg"
   xmlns:sodipodi="http://sodipodi.sourceforge.net/DTD/sodipodi-0.dtd"
   xmlns:inkscape="http://www.inkscape.org/namespaces/inkscape"
   width="128"
   height="128"
   viewBox="0 0 128 128"
   id="svg2"
   version="1.1"
   inkscape:version="0.91 r13725"
   sodipodi:docname="familia_index34.svg"
   inkscape:export-filename="/home/kirschcobric/Documentos/PROYECTOS/ENSEÑAS/DISEÑOS/familia_index1.svg.png"
   inkscape:export-xdpi="90"
   inkscape:export-ydpi="90">
  <defs
     id="defs4" />
  <sodipodi:namedview
     id="base"
     pagecolor="#ffffff"
     bordercolor="#666666"
     borderopacity="1.0"
     inkscape:pageopacity="0.0"
     inkscape:pageshadow="2"
     inkscape:zoom="2.6114112"
     inkscape:cx="40.87611"
     inkscape:cy="48.538607"
     inkscape:document-units="px"
     inkscape:current-layer="layer1"
     showgrid="false"
     units="px"
     inkscape:showpageshadow="true"
     showborder="true"
     borderlayer="true"
     inkscape:window-width="1280"
     inkscape:window-height="771"
     inkscape:window-x="0"
     inkscape:window-y="0"
     inkscape:window-maximized="1" />
  <metadata
     id="metadata7">
    <rdf:RDF>
      <cc:Work
         rdf:about="">
        <dc:format>image/svg+xml</dc:format>
        <dc:type
           rdf:resource="http://purl.org/dc/dcmitype/StillImage" />
        <dc:title></dc:title>
      </cc:Work>
    </rdf:RDF>
  </metadata>
  <g
     inkscape:label="Capa 1"
     inkscape:groupmode="layer"
     id="layer1"
     transform="translate(0,-924.3622)">
    <circle
       style="fill:#ff9a00;fill-opacity:1"
       cx="64"
       cy="988.36218"
       r="62.576092"
       id="circle5147" />
    <g
       id="g5157"
       transform="matrix(0.24636257,0,0,0.24636257,1.4239072,925.78611)" />
    <g
       id="g5159"
       transform="matrix(0.24636257,0,0,0.24636257,1.4239072,925.78611)" />
    <g
       id="g5161"
       transform="matrix(0.24636257,0,0,0.24636257,1.4239072,925.78611)" />
    <g
       id="g5163"
       transform="matrix(0.24636257,0,0,0.24636257,1.4239072,925.78611)" />
    <g
       id="g5165"
       transform="matrix(0.24636257,0,0,0.24636257,1.4239072,925.78611)" />
    <g
       id="g5167"
       transform="matrix(0.24636257,0,0,0.24636257,1.4239072,925.78611)" />
    <g
       id="g5169"
       transform="matrix(0.24636257,0,0,0.24636257,1.4239072,925.78611)" />
    <g
       id="g5171"
       transform="matrix(0.24636257,0,0,0.24636257,1.4239072,925.78611)" />
    <g
       id="g5173"
       transform="matrix(0.24636257,0,0,0.24636257,1.4239072,925.78611)" />
    <g
       id="g5175"
       transform="matrix(0.24636257,0,0,0.24636257,1.4239072,925.78611)" />
    <g
       id="g5177"
       transform="matrix(0.24636257,0,0,0.24636257,1.4239072,925.78611)" />
    <g
       id="g5179"
       transform="matrix(0.24636257,0,0,0.24636257,1.4239072,925.78611)" />
    <g
       id="g5181"
       transform="matrix(0.24636257,0,0,0.24636257,1.4239072,925.78611)" />
    <g
       id="g5183"
       transform="matrix(0.24636257,0,0,0.24636257,1.4239072,925.78611)" />
    <g
       id="g5185"
       transform="matrix(0.24636257,0,0,0.24636257,1.4239072,925.78611)" />
    <g
       id="g7021"
       transform="matrix(0.21259843,0,0,0.21259843,-87.984794,1057.2401)" />
    <g
       id="g7023"
       transform="matrix(0.21259843,0,0,0.21259843,-87.984794,1057.2401)" />
    <g
       id="g7025"
       transform="matrix(0.21259843,0,0,0.21259843,-87.984794,1057.2401)" />
    <g
       id="g7027"
       transform="matrix(0.21259843,0,0,0.21259843,-87.984794,1057.2401)" />
    <g
       id="g7029"
       transform="matrix(0.21259843,0,0,0.21259843,-87.984794,1057.2401)" />
    <g
       id="g7031"
       transform="matrix(0.21259843,0,0,0.21259843,-87.984794,1057.2401)" />
    <g
       id="g7033"
       transform="matrix(0.21259843,0,0,0.21259843,-87.984794,1057.2401)" />
    <g
       id="g7035"
       transform="matrix(0.21259843,0,0,0.21259843,-87.984794,1057.2401)" />
    <g
       id="g7037"
       transform="matrix(0.21259843,0,0,0.21259843,-87.984794,1057.2401)" />
    <g
       id="g7039"
       transform="matrix(0.21259843,0,0,0.21259843,-87.984794,1057.2401)" />
    <g
       id="g7041"
       transform="matrix(0.21259843,0,0,0.21259843,-87.984794,1057.2401)" />
    <g
       id="g7043"
       transform="matrix(0.21259843,0,0,0.21259843,-87.984794,1057.2401)" />
    <g
       id="g7045"
       transform="matrix(0.21259843,0,0,0.21259843,-87.984794,1057.2401)" />
    <g
       id="g7047"
       transform="matrix(0.21259843,0,0,0.21259843,-87.984794,1057.2401)" />
    <g
       id="g7049"
       transform="matrix(0.21259843,0,0,0.21259843,-87.984794,1057.2401)" />
    <g
       id="g7152"
       transform="matrix(0.21259843,0,0,0.21259843,-82.428955,859.25021)" />
    <g
       id="g7154"
       transform="matrix(0.21259843,0,0,0.21259843,-82.428955,859.25021)" />
    <g
       id="g7156"
       transform="matrix(0.21259843,0,0,0.21259843,-82.428955,859.25021)" />
    <g
       id="g7158"
       transform="matrix(0.21259843,0,0,0.21259843,-82.428955,859.25021)" />
    <g
       id="g7160"
       transform="matrix(0.21259843,0,0,0.21259843,-82.428955,859.25021)" />
    <g
       id="g7162"
       transform="matrix(0.21259843,0,0,0.21259843,-82.428955,859.25021)" />
    <g
       id="g7164"
       transform="matrix(0.21259843,0,0,0.21259843,-82.428955,859.25021)" />
    <g
       id="g7166"
       transform="matrix(0.21259843,0,0,0.21259843,-82.428955,859.25021)" />
    <g
       id="g7168"
       transform="matrix(0.21259843,0,0,0.21259843,-82.428955,859.25021)" />
    <g
       id="g7170"
       transform="matrix(0.21259843,0,0,0.21259843,-82.428955,859.25021)" />
    <g
       id="g7172"
       transform="matrix(0.21259843,0,0,0.21259843,-82.428955,859.25021)" />
    <g
       id="g7174"
       transform="matrix(0.21259843,0,0,0.21259843,-82.428955,859.25021)" />
    <g
       id="g7176"
       transform="matrix(0.21259843,0,0,0.21259843,-82.428955,859.25021)" />
    <g
       id="g7178"
       transform="matrix(0.21259843,0,0,0.21259843,-82.428955,859.25021)" />
    <g
       id="g7180"
       transform="matrix(0.21259843,0,0,0.21259843,-82.428955,859.25021)" />
    <circle
       style="fill:#324a5e;fill-opacity:1"
       cx="64"
       cy="988.36218"
       r="58.746746"
       id="circle5147-5" />
    <g
       id="g7813"
       transform="matrix(0.91432237,0,0,0.95086044,13.659346,36.247622)">
      <path
         id="path7310"
         d="m 50.003891,983.30856 c 0,4.4377 -2.93911,5.8826 -6.48632,5.8826 -3.54721,0 -6.48633,-1.4449 -6.48633,-5.8826 0,-4.4378 2.88845,-10.2688 6.48633,-10.2688 3.59788,0 6.48632,5.831 6.48632,10.2688 z"
         style="fill:#f9b54c"
         inkscape:connector-curvature="0" />
      <path
         id="path7312"
         d="m 50.307941,982.32806 -0.35473,18.31874 -2.07764,5.9858 -3.64856,10.5268 c -0.2027,0 -0.35472,0 -0.55742,0 -0.0506,0 -0.15202,0 -0.25337,0 -0.0507,0 -0.15203,0 -0.25337,0 -0.2027,0 -0.4054,0 -0.55742,0 l -3.64856,-10.3204 -3.04046,-8.66914 0,-13.9841 1.06416,-2.5801 0.0506,0.052 0.35472,0.3612 4.00328,4.2313 0.70944,0.7225 1.26686,-0.7225 0.0506,-0.052 1.11484,-0.6193 0,0 4.91542,-2.8381 0.45606,-0.258 0,0 0.4054,-0.1548 z"
         style="fill:#e6e9ee"
         inkscape:connector-curvature="0" />
      <polygon
         transform="matrix(0.12668601,0,0,0.12900468,11.339321,951.62496)"
         id="polygon7314"
         points="282,282.4 271.6,268.4 236.4,268.4 226,282.4 239.2,300 268.8,300 "
         style="fill:#f1543f" />
      <path
         id="path7316"
         d="m 48.787711,1012.2572 -1.82428,2.1157 0,0 -2.3817,2.7349 c -0.10135,0 -0.2027,0 -0.30405,0 -0.2027,0 -0.35472,0 -0.55742,0 -0.0506,0 -0.15202,0 -0.25337,0 -0.0507,0 -0.15202,0 -0.25337,0 -0.2027,0 -0.4054,0 -0.55742,0 -0.10135,0 -0.2027,0 -0.25337,0 l -2.3817,-2.7349 0,0 -1.82427,-2.1157 0.25336,-1.4965 0.6081,-3.9733 0.86147,-5.6762 0,0 1.67225,-10.78484 3.74991,0 1.72293,10.78484 0,0 0,0 0.86146,5.5214 0.65877,4.1281 0.2027,1.4965 z"
         style="fill:#ff7058"
         inkscape:connector-curvature="0" />
      <path
         id="path7318"
         d="m 30.139531,1004.6717 c -0.45608,0.3613 -0.91214,3.9734 -1.41889,8.8239 -0.0506,0 -0.10135,-0.052 -0.10135,-0.052 -2.73642,-1.4449 -5.21946,-3.3026 -7.44914,-5.4698 0.8108,-10.83654 1.57091,-19.86684 1.57091,-19.86684 l 0,0 c 0,0 0,0 0,0.052 l 7.39847,16.51264 z"
         style="fill:#006680;fill-opacity:1"
         inkscape:connector-curvature="0" />
      <path
         id="path7320"
         d="m 43.264191,1017.1594 c -0.20269,0 -0.40539,0 -0.55741,0 -0.10135,0 -0.2027,0 -0.25338,0 -0.35472,0 -0.65877,0 -1.01348,-0.052 -4.5607,-0.3096 -8.86802,-1.5481 -12.66861,-3.5606 -0.0506,0 -0.10134,-0.052 -0.10134,-0.052 -1.92563,-12.952 -5.57419,-24.45934 -5.82756,-25.28494 0,0 0,0 0,-0.052 l 0,0 c 9.47611,-2.064 14.34086,-8.2047 14.8476,-8.9271 l 0,0 c 0,-0.052 0.0506,-0.052 0.0506,-0.052 0,0.052 0,0.1032 -0.0506,0.1547 -0.15202,0.6709 -0.25337,1.5998 -0.25337,2.735 0,1.0836 0.0506,2.3221 0.20269,3.7153 l 0,0 c 0,0.258 0.0506,0.516 0.0506,0.8256 l 0,0 c 0.4054,4.283 1.31754,9.5464 2.22968,14.50024 l 0,0 c 1.57091,8.4111 3.29383,15.8933 3.29383,15.8933 0.0506,0.052 0.0506,0.1033 0.0506,0.1548 z"
         style="fill:#0088aa;fill-opacity:1"
         inkscape:connector-curvature="0" />
      <path
         id="path7322"
         d="m 43.264191,1017.1594 c -0.20269,0 -0.40539,0 -0.55741,0 -0.10135,0 -0.2027,0 -0.25338,0 -0.35472,0 -0.65877,0 -1.01348,-0.052 -0.45608,-0.8772 -0.91214,-1.7545 -1.36822,-2.6833 l 0,0 c -0.55741,-1.1353 -1.06415,-2.3737 -1.5709,-3.6121 -4.00328,-9.6496 -6.68902,-20.84724 -6.68902,-20.84724 0.81079,0.1032 2.98979,-0.9289 2.98979,-0.9289 l -2.98979,-3.5605 c 3.19249,-0.8256 5.42216,-5.1601 5.9289,-6.1406 0.0506,-0.1032 0.10135,-0.1548 0.10135,-0.2064 0,0.052 0,0.1032 -0.0506,0.1548 -0.15202,0.6708 -0.25337,1.5997 -0.25337,2.7349 0,1.0836 0.0506,2.3221 0.2027,3.7153 l 0,0 c 0,0.258 0.0506,0.516 0.0506,0.8257 l 0,0 c 0.4054,4.2829 1.31754,9.5463 2.22967,14.50014 l 0,0 c 1.57091,8.4111 3.29384,15.8933 3.29384,15.8933 -0.0507,0.1033 -0.0507,0.1549 -0.0507,0.2065 z"
         style="fill:#acb3ba"
         inkscape:connector-curvature="0" />
      <path
         id="path7324"
         d="m 65.864981,1007.9743 c -2.179,2.1672 -4.71272,4.0249 -7.44914,5.4698 -0.0506,0 -0.10135,0.052 -0.10135,0.052 -0.45607,-4.9021 -0.96281,-8.4626 -1.41888,-8.8239 l 7.34779,-16.51264 c 0,0 0,0 0,-0.051 l 0,0 c 0,0 0.81079,9.0819 1.62158,19.86674 z"
         style="fill:#006680"
         inkscape:connector-curvature="0" />
      <path
         id="path7326"
         d="m 64.243401,988.10746 0,0 c 0,0.052 0,0.052 0,0 -0.25337,0.8773 -3.90193,12.38454 -5.82756,25.33664 -0.0506,0 -0.10135,0.052 -0.10135,0.052 -3.85125,2.0125 -8.15858,3.3026 -12.6686,3.5606 -0.35472,0 -0.65877,0.052 -1.01349,0.052 -0.10134,0 -0.20269,0 -0.30404,0 -0.2027,0 -0.35472,0 -0.55742,0 0,-0.052 0,-0.1032 0,-0.1032 0,0 1.72293,-7.4822 3.29384,-15.8933 l 0,0 0,0 c 0.91214,-4.95384 1.7736,-10.26884 2.22967,-14.50024 l 0,0 c 0,-0.258 0.0506,-0.516 0.0506,-0.774 l 0,0 c 0.10135,-1.0836 0.15202,-2.1157 0.2027,-2.9929 0.0507,-1.4965 -0.0506,-2.6833 -0.25338,-3.509 l 0,0 c 0,-0.052 0,-0.1031 -0.0506,-0.1548 l 0,0 c 0,0 0,0 0.0506,0.052 l 0,0 c 0.45607,0.5676 5.32081,6.8115 14.94895,8.8755 z"
         style="fill:#0088aa"
         inkscape:connector-curvature="0" />
      <path
         id="path7328"
         d="m 55.274031,989.96516 c 0,0 -2.68574,11.14604 -6.68902,20.84724 -0.50675,1.2384 -1.06417,2.4252 -1.57091,3.6121 l 0,0 c -0.45607,0.9288 -0.91214,1.8576 -1.36821,2.6833 -0.35472,0 -0.65877,0.052 -1.01349,0.052 -0.10134,0 -0.20269,0 -0.30404,0 -0.2027,0 -0.35472,0 -0.55742,0 0,-0.052 0,-0.1032 0,-0.1032 0,0 1.72293,-7.4823 3.29384,-15.8934 l 0,0 0,0 c 0.91214,-4.95384 1.7736,-10.26874 2.22967,-14.50014 l 0,0 c 0,-0.2581 0.0506,-0.5161 0.0506,-0.7741 l 0,0 c 0.10135,-1.0836 0.15202,-2.1156 0.2027,-2.9928 0.0507,-1.4965 -0.0506,-2.6834 -0.25338,-3.509 l 0,0 c 0,-0.052 0,-0.1032 -0.0506,-0.1548 l 0,0 c 0,0 0.0506,0.052 0.0506,0.1548 l 0,0 c 0.45607,0.9289 2.73642,5.315 5.92891,6.1407 l -2.93912,3.5088 c 0,0 2.17901,1.0321 2.9898,0.9289 z"
         style="fill:#ced5e0"
         inkscape:connector-curvature="0" />
      <g
         transform="matrix(0.12668601,0,0,0.12900468,11.339321,951.62496)"
         id="g7330">
        <path
           id="path7332"
           d="m 299.2,213.2 c 0,0 11.2,25.2 -45.2,54.8 l 25.6,38 c 0,0.4 40.4,-57.2 19.6,-92.8 z"
           style="fill:#ffffff"
           inkscape:connector-curvature="0" />
        <path
           id="path7334"
           d="m 208.8,213.2 c 0,0 -11.2,25.2 45.2,54.8 l -25.6,38 c 0,0.4 -40.4,-57.2 -19.6,-92.8 z"
           style="fill:#ffffff"
           inkscape:connector-curvature="0" />
      </g>
      <g
         transform="matrix(0.12668601,0,0,0.12900468,11.339321,951.62496)"
         id="g7336">
        <path
           id="path7338"
           d="m 320.8,130.4 c 0,49.6 -30,114.4 -66.8,114.4 -36.8,0 -66.8,-64.8 -66.8,-114.4 0,-49.6 30,-65.2 66.8,-65.2 36.8,0 66.8,15.6 66.8,65.2 z"
           style="fill:#ffd05b"
           inkscape:connector-curvature="0" />
        <path
           id="path7340"
           d="m 335.6,154.4 c -4,9.2 -11.6,14.8 -16.8,12.8 -5.2,-2 -6.4,-10.8 -2.4,-20 4,-9.2 11.6,-14.8 16.8,-12.8 5.6,1.6 6.4,10.8 2.4,20 z"
           style="fill:#ffd05b"
           inkscape:connector-curvature="0" />
        <path
           id="path7342"
           d="m 172.4,154.4 c 4,9.2 11.6,14.8 16.8,12.8 5.2,-2 6.4,-10.8 2.4,-20 -4,-9.2 -11.6,-14.8 -16.8,-12.8 -5.6,1.6 -6.4,10.8 -2.4,20 z"
           style="fill:#ffd05b"
           inkscape:connector-curvature="0" />
      </g>
      <path
         id="path7344"
         d="m 43.466891,962.30656 c 2.48305,-1.3932 8.25993,-3.3541 8.25993,9.2883 0,0 5.57418,-14.5001 -2.93911,-14.7065 0,0 -5.97959,-6.1922 -13.73277,2.8381 l 1.21619,-0.6192 c 0,0 -6.23295,3.7153 -0.91214,12.4876 0,0 -0.91214,-12.694 5.97958,-9.2367 0.65876,0.3612 1.46955,0.3096 2.12832,-0.052 z"
         style="fill:#b3b3b3"
         inkscape:connector-curvature="0" />
      <g
         style="stroke:#000000;stroke-width:1.00125086;stroke-miterlimit:4;stroke-dasharray:none;stroke-opacity:1"
         transform="matrix(0.12668601,0,0,0.12900468,11.339321,951.62496)"
         id="g7346">
        <path
           id="path7348"
           d="m 309.6,161.6 -40,0 c -4.4,0 -8,-3.6 -8,-8 l 0,-14.8 c 0,-4.4 3.6,-8 8,-8 l 40,0 c 4.4,0 8,3.6 8,8 l 0,14.8 c 0,4.4 -3.6,8 -8,8 z"
           style="fill:none;stroke:#000000;stroke-width:1.00125086;stroke-miterlimit:4;stroke-dasharray:none;stroke-opacity:1"
           inkscape:connector-curvature="0" />
        <path
           id="path7350"
           d="m 238.4,161.6 -40,0 c -4.4,0 -8,-3.6 -8,-8 l 0,-14.8 c 0,-4.4 3.6,-8 8,-8 l 40,0 c 4.4,0 8,3.6 8,8 l 0,14.8 c -0.4,4.4 -4,8 -8,8 z"
           style="fill:none;stroke:#000000;stroke-width:1.00125086;stroke-miterlimit:4;stroke-dasharray:none;stroke-opacity:1"
           inkscape:connector-curvature="0" />
        <path
           id="path7352"
           d="m 246.4,143.2 c 0,-4.4 3.6,-7.6 7.6,-7.6 4,0 7.6,3.6 7.6,7.6"
           style="fill:none;stroke:#000000;stroke-width:1.00125086;stroke-linecap:round;stroke-miterlimit:4;stroke-dasharray:none;stroke-opacity:1"
           inkscape:connector-curvature="0" />
      </g>
    </g>
    <g
       id="g11945"
       transform="translate(2.573786,-2.9911379)">
      <path
         id="path6965"
         d="m 92.4095,1029.6904 c 0,0.5175 0,1.0349 0,1.5524 -5.46991,2.2174 -11.45724,3.4741 -17.74024,3.4741 -6.28301,0 -12.34426,-1.2567 -17.81416,-3.4741 0,-0.5175 0,-0.961 0,-1.4784 0,-2.1437 0.22175,-4.2133 0.51742,-6.2091 l 0,0 1.10876,-0.887 0.29568,-0.2217 15.30095,-11.753 0.44351,-0.2957 0.59134,0.4436 15.37488,11.7528 0.22175,0.1479 1.10877,0.8131 0,0.074 c 0.36958,1.9219 0.59134,3.9915 0.59134,6.0612 z"
         style="fill:#ffffff"
         inkscape:connector-curvature="0" />
      <path
         id="path6967"
         d="m 60.77273,977.35667 c -0.29567,-0.5174 -0.14783,-1.1827 0.14784,-1.6261 0.29567,-0.5175 0.73917,-0.8871 1.10876,-1.3305 0.88701,-0.961 1.55227,-2.1437 1.40444,-3.4002 -0.0739,-0.6653 -0.44351,-1.2567 -0.66526,-1.922 -0.22175,-0.6652 -0.36959,-1.4044 0,-1.9957 0.14783,-0.1478 0.29567,-0.2957 0.36959,-0.5174 0.96093,-1.2567 0.36959,-2.9568 0.29567,-4.509 -0.14784,-2.5872 1.10876,-5.0264 2.29145,-7.3179 0.81309,-1.5522 1.7001,-3.2523 3.17846,-4.2132 0.88701,-0.5915 1.99577,-0.8871 3.03062,-1.1088 2.80887,-0.4436 5.8395,0.074 8.13095,1.774 1.77402,1.3305 3.03062,3.2523 3.84371,5.322 0.8131,2.0697 1.2566,4.2873 1.62619,6.4309 0.22176,1.2566 0.36959,2.7349 -0.36959,3.7698 -0.29567,0.4435 -0.73917,0.7392 -1.03484,1.1827 -0.36959,0.5913 -0.51743,1.2566 -0.66526,1.9218 -0.14784,0.6653 -0.22175,1.4045 0,2.0697 0.36959,0.887 1.2566,1.3305 1.92186,1.9958 0.81309,0.8131 1.10876,1.9958 1.40443,3.1046 0.14784,0.4435 0.22176,0.9609 0.22176,1.4044 -0.14784,1.1826 -1.2566,1.9218 -2.36537,2.3654 -3.7698,1.6261 -7.90919,1.9957 -11.97466,1.9957 -1.10877,0 -2.21753,0 -3.25238,-0.3696 -1.62619,-0.4435 -2.95671,-1.5522 -4.28722,-2.661 -0.66526,-0.5174 -3.84372,-1.4784 -4.36115,-2.3654 z"
         style="fill:#ac9393"
         inkscape:connector-curvature="0" />
      <polygon
         transform="matrix(0.18479419,0,0,0.18479419,27.65761,940.84137)"
         id="polygon6969"
         points="280.8,170 293.2,180 293.2,220.8 294.8,258.4 256.8,266.8 210.8,252 210.8,208 218.8,177.6 227.2,170 254,167.2 "
         style="fill:#f9b54c" />
      <path
         id="path6971"
         d="m 67.12965,987.40947 c 0,0 5.46991,1.9959 14.70962,0 l -4.36114,19.44043 -10.34848,1.5523 0,-20.99273 z"
         style="fill:#ffffff"
         inkscape:connector-curvature="0" />
      <path
         id="path6973"
         d="m 57.22468,980.09167 c 0,0 -5.76557,16.1141 1.33052,42.79833 l 3.25238,-8.1309 c 0,0 -1.62619,-18.33163 1.10876,-22.17533 l -1.77402,-10.5703 -3.91764,-1.9218 z"
         style="fill:#ff7058"
         inkscape:connector-curvature="0" />
      <g
         transform="matrix(0.18479419,0,0,0.18479419,27.65761,940.84137)"
         id="g6975">
        <path
           id="path6977"
           d="m 227.2,170 c 0,0 -18,26.4 -67.2,42.4 0,0 67.2,85.2 0,234 0,0 27.2,45.2 67.2,51.6 0,0 25.6,-123.6 33.6,-129.2 l -34.8,-52.4 -12.4,-64 5.6,-62.4 8,-20 z"
           style="fill:#f1543f"
           inkscape:connector-curvature="0" />
        <path
           id="path6979"
           d="m 348,212.4 c 0,0 31.2,87.2 -7.2,231.6 l -17.6,-44 c 0,0 8.8,-99.2 -6,-120 l 9.6,-57.2 21.2,-10.4 z"
           style="fill:#f1543f"
           inkscape:connector-curvature="0" />
      </g>
      <path
         id="path6981"
         d="m 79.54782,972.25637 c 0,0 3.3263,4.8786 12.41817,7.8353 0,0 -12.41817,15.7445 0,43.24183 0,0 -5.0264,8.3527 -12.41817,9.5354 0,0 -4.73073,-22.8405 -6.20908,-23.8754 l 6.43083,-9.68323 2.29145,-11.8269 -1.03484,-11.5311 -1.47836,-3.6959 z"
         style="fill:#ff7058"
         inkscape:connector-curvature="0" />
      <path
         id="path6983"
         d="m 75.18668,972.99557 4.36114,-0.7392 c 0,0 -1.92186,-2.8089 -1.99578,-7.096 l -2.36536,0 -1.10877,0 -2.36536,0 c -0.0739,4.2871 -1.99578,7.096 -1.99578,7.096 l 4.36114,0.7392 0,0.2217 0.59135,-0.074 0.59134,0.074 0,-0.2217 -0.0739,0 z"
         style="fill:#f9b54c"
         inkscape:connector-curvature="0" />
      <ellipse
         id="ellipse6985"
         ry="10.644145"
         rx="7.5396028"
         cy="963.53406"
         cx="74.373581"
         style="fill:#ffd05b" />
      <g
         style="fill:#ac9393"
         transform="matrix(0.18479419,0,0,0.18479419,27.65761,940.84137)"
         id="g6987">
        <path
           id="path6989"
           d="m 244.4,59.2 c 0,0 20,53.6 60.4,68.8 L 290,70 256.8,53.6 244.4,59.2 Z"
           style="fill:#ac9393"
           inkscape:connector-curvature="0" />
        <path
           id="path6991"
           d="m 255.6,59.6 c 0,0 -29.6,43.6 -50.4,53.6 l 5.6,-33.6 19.6,-18.4 25.2,-1.6 z"
           style="fill:#ac9393"
           inkscape:connector-curvature="0" />
      </g>
      <path
         id="path6993"
         d="m 82.06102,976.83927 c -1.47835,2.0697 -4.36114,3.5481 -7.68744,3.5481 -3.32629,0 -6.20908,-1.4045 -7.68743,-3.5481 l -0.29567,0 c 1.47835,2.2176 4.50897,3.7698 7.9831,3.7698 3.47414,0 6.43084,-1.5522 7.98311,-3.7698 l -0.29567,0 z"
         style="fill:#ffffff"
         inkscape:connector-curvature="0" />
      <path
         id="path6995"
         d="m 75.11276,980.68297 c 0,0.3696 -0.14783,1.7741 -0.51742,1.7741 -0.36959,0 -0.51743,-1.4045 -0.51743,-1.7741 l 0,-0.074 c 0,-0.074 0,-0.1478 0,-0.2217 0.0739,-0.3696 0.22176,-0.5174 0.51743,-0.5174 0.22175,0 0.4435,0.074 0.51742,0.4434 -0.0739,0 -0.14783,0 -0.22175,0 -0.0739,-0.2956 -0.14784,-0.2956 -0.29567,-0.2956 -0.14784,0 -0.22176,0 -0.29567,0.2956 0,0.074 0,0.1479 0,0.2218 l 0,0.074 c 0,0.7391 0.22175,1.4783 0.29567,1.5522 0.14783,-0.074 0.29567,-0.8131 0.29567,-1.5522 l 0,-0.074 c 0.0739,0 0.14783,0 0.22175,0 0,0.074 0,0.1478 0,0.1478 z"
         style="fill:#324a5e"
         inkscape:connector-curvature="0" />
      <circle
         id="circle6997"
         r="1.4783535"
         cy="983.41797"
         cx="74.595337"
         style="fill:#e6e9ee" />
      <g
         transform="matrix(0.18479419,0,0,0.18479419,27.65761,940.84137)"
         id="g6999">
        <ellipse
           id="ellipse7001"
           ry="3.2"
           rx="0.80000001"
           cy="227.2"
           cx="254"
           style="fill:#ced5e0" />
        <ellipse
           id="ellipse7003"
           ry="3.2"
           rx="0.80000001"
           cy="233.60001"
           cx="254"
           style="fill:#ced5e0" />
        <ellipse
           id="ellipse7005"
           ry="0.80000001"
           rx="3.2"
           cy="230.39999"
           cx="257.60001"
           style="fill:#ced5e0" />
        <ellipse
           id="ellipse7007"
           ry="0.80000001"
           rx="3.2"
           cy="230.39999"
           cx="250.8"
           style="fill:#ced5e0" />
        <ellipse
           id="ellipse7009"
           ry="0.80000001"
           rx="3.2"
           cy="227.96899"
           cx="256.45001"
           style="fill:#ced5e0"
           transform="matrix(0.707,-0.7072,0.7072,0.707,-86.0828,248.1568)" />
        <ellipse
           id="ellipse7011"
           ry="0.80000001"
           rx="3.2"
           cy="232.69"
           cx="251.62199"
           style="fill:#ced5e0"
           transform="matrix(0.707,-0.7072,0.7072,0.707,-90.8362,246.1255)" />
        <ellipse
           id="ellipse7013"
           ry="0.80000001"
           rx="3.2"
           cy="232.728"
           cx="256.49799"
           style="fill:#ced5e0"
           transform="matrix(0.7071,0.7071,-0.7071,0.7071,239.6898,-113.2074)" />
        <ellipse
           id="ellipse7015"
           ry="0.80000001"
           rx="3.2"
           cy="228.039"
           cx="251.924"
           style="fill:#ced5e0"
           transform="matrix(0.707,0.7072,-0.7072,0.707,235.0829,-111.3485)" />
      </g>
      <path
         id="path7017"
         d="m 69.64285,972.25637 c 0,0 -5.24815,18.7012 6.20909,36.73713 0,0 -10.71806,-6.2091 -12.9356,-26.38863 l 3.54805,-0.5174 -2.43928,-1.6262 c 0.0739,0 -0.14784,-6.4308 5.61774,-8.2049 z"
         style="fill:#ff7058"
         inkscape:connector-curvature="0" />
      <path
         id="path7019"
         d="m 79.54782,972.25637 c 0,0 5.24816,18.7012 -6.20908,36.73713 0,0 10.71806,-6.2091 12.93559,-26.38863 l -3.54805,-0.5174 2.43928,-1.6262 c -0.0739,0 0.14784,-6.4308 -5.61774,-8.2049 z"
         style="fill:#f1543f"
         inkscape:connector-curvature="0" />
    </g>
    <ellipse
       style="fill:#f9b54c"
       cx="48.173565"
       cy="1000.4931"
       rx="4.4220471"
       ry="7.6535435"
       id="ellipse7110" />
    <path
       inkscape:connector-curvature="0"
       style="fill:#808000;fill-opacity:1"
       d="m 63.905861,1026.0899 c 0.76535,-2.9764 1.19055,-6.0378 1.19055,-8.9292 0,-12.0756 -7.56851,-15.7323 -16.92284,-15.7323 -9.35433,0 -16.92283,3.6567 -16.92283,15.7323 0,2.8063 0.42519,5.8677 1.19055,8.9292 l 31.46457,0 z"
       id="path7112" />
    <g
       id="g7673"
       transform="translate(-182.40733,-8.3916533)">
      <path
         id="path7124"
         d="m 259.48804,1040.9703 c 0.51024,-1.8709 0.76536,-3.8268 0.76536,-5.6126 0,-7.6535 -4.84725,-9.9496 -10.71497,-9.9496 -5.95275,0 -10.71496,2.2961 -10.71496,9.9496 0,1.7858 0.25512,3.7417 0.76536,5.6126 l 19.89921,0 z"
         style="fill:#e6e9ee"
         inkscape:connector-curvature="0" />
      <path
         id="path7126"
         d="m 252.94001,1025.7483 c 0,1.8708 -1.53071,3.4866 -3.48661,3.4866 -1.87087,0 -3.48662,-1.5307 -3.48662,-3.4866 0,-1.8709 1.53071,-7.3134 3.48662,-7.3134 1.87086,0 3.48661,5.4425 3.48661,7.3134 z"
         style="fill:#f9b54c"
         inkscape:connector-curvature="0" />
      <circle
         id="circle7128"
         r="8.9291344"
         cy="1014.6932"
         cx="249.70851"
         style="fill:#324a5e" />
      <ellipse
         id="ellipse7130"
         ry="6.6330709"
         rx="7.3133864"
         cy="1018.4349"
         cx="249.70851"
         style="fill:#ffd05b" />
      <g
         transform="matrix(0.21259843,0,0,0.21259843,178.1904,968.34668)"
         id="g7132">
        <path
           id="path7134"
           d="m 364.4,224 c -10.8,-6 -9.2,-18 -9.2,-18 0,0 -12.4,-10 -18.8,-3.6 -6.8,-6 -18.8,3.6 -18.8,3.6 0,0 1.6,12 -9.2,18 0,0 18,-4.8 17.6,-18 0,0 4,16 -4,19.6 0,0 9.2,-1.6 14.4,-6.8 5.2,5.2 14.4,6.8 14.4,6.8 -7.6,-3.6 -4,-19.6 -4,-19.6 -0.8,13.6 17.6,18 17.6,18 z"
           style="fill:#324a5e"
           inkscape:connector-curvature="0" />
        <path
           id="path7136"
           d="m 396.4,175.6 c -5.6,-1.2 -11.2,-0.8 -17.2,0.8 -5.6,2 -10.8,5.2 -14.4,9.2 0,-10 4,-18 10.8,-20 6.8,-2.4 14.8,2 20.8,10 z"
           style="fill:#324a5e"
           inkscape:connector-curvature="0" />
      </g>
      <path
         id="path7138"
         d="m 256.5967,1006.6994 c 0.34016,0.2552 0.17008,0.9355 -0.34015,1.3607 -0.51024,0.5102 -1.10552,0.5952 -1.44567,0.3401 -0.34016,-0.2551 -0.17008,-0.9354 0.34015,-1.3606 0.51024,-0.4252 1.19055,-0.5953 1.44567,-0.3402 z"
         style="fill:#e6e9ee"
         inkscape:connector-curvature="0" />
      <path
         id="path7140"
         d="m 236.44237,1005.679 c 1.19055,-0.2551 2.3811,-0.1701 3.65669,0.17 1.19056,0.4252 2.29607,1.1056 3.06142,1.956 0,-2.126 -0.85039,-3.8268 -2.29606,-4.252 -1.44567,-0.5103 -3.14646,0.4252 -4.42205,2.126 z"
         style="fill:#324a5e"
         inkscape:connector-curvature="0" />
      <path
         id="path7142"
         d="m 242.31009,1006.6994 c -0.34016,0.2552 -0.17008,0.9355 0.34016,1.3607 0.51023,0.5102 1.10551,0.5952 1.44566,0.3401 0.34016,-0.2551 0.17008,-0.9354 -0.34015,-1.3606 -0.51024,-0.4252 -1.19055,-0.5953 -1.44567,-0.3402 z"
         style="fill:#e6e9ee"
         inkscape:connector-curvature="0" />
      <g
         transform="matrix(0.21259843,0,0,0.21259843,178.1904,968.34668)"
         id="g7144">
        <ellipse
           id="ellipse7146"
           ry="5.1999998"
           rx="6.8000002"
           cy="230.30499"
           cx="368.448"
           style="fill:#ffd05b"
           transform="matrix(0.5007,-0.8656,0.8656,0.5007,-15.3928,433.923)" />
        <ellipse
           id="ellipse7148"
           ry="5.1999998"
           rx="6.8000002"
           cy="230.569"
           cx="303.724"
           style="fill:#ffd05b"
           transform="matrix(0.5007,0.8656,-0.8656,0.5007,351.2304,-147.7871)" />
      </g>
    </g>
    <g
       id="g7114"
       transform="matrix(0.21259843,0,0,0.21259843,7.5247512,950.31973)">
      <path
         inkscape:connector-curvature="0"
         style="fill:#e6e9ee"
         d="m 211.6,234 c 0,0 -12,7.6 -20.4,7.6 l 11.2,24 16,-22.4 -6.8,-9.2 z"
         id="path7116" />
      <path
         inkscape:connector-curvature="0"
         style="fill:#e6e9ee"
         d="m 170.4,234 c 0,0 12,7.6 20.4,7.6 l -11.2,24 -16,-22.4 6.8,-9.2 z"
         id="path7118" />
    </g>
    <ellipse
       style="fill:#917c6f"
       cx="47.38261"
       cy="987.12396"
       rx="10.421243"
       ry="10.362032"
       id="ellipse7232" />
    <path
       id="path7240"
       d="m 55.435398,989.78849 c 0,4.44087 -3.611914,8.05277 -8.052782,8.05277 -4.144809,0 -7.579086,-3.13821 -7.993564,-7.22381 1.598712,-0.35527 3.375059,-1.24345 4.97377,-2.60532 1.539506,-1.30265 2.664521,-2.84215 3.315854,-4.32244 0.710537,0.94739 1.717135,1.89477 2.901369,2.72373 1.657924,1.18424 3.375059,1.95399 4.796141,2.19084 0,0.47368 0.05918,0.82896 0.05918,1.18423 z"
       style="fill:#ffd05b"
       inkscape:connector-curvature="0" />
    <g
       id="g7246"
       transform="matrix(0.21259843,0,0,0.21259843,151.42136,914.30353)" />
    <g
       id="g7248"
       transform="matrix(0.21259843,0,0,0.21259843,151.42136,914.30353)" />
    <g
       id="g7250"
       transform="matrix(0.21259843,0,0,0.21259843,151.42136,914.30353)" />
    <g
       id="g7252"
       transform="matrix(0.21259843,0,0,0.21259843,151.42136,914.30353)" />
    <g
       id="g7254"
       transform="matrix(0.21259843,0,0,0.21259843,151.42136,914.30353)" />
    <g
       id="g7256"
       transform="matrix(0.21259843,0,0,0.21259843,151.42136,914.30353)" />
    <g
       id="g7258"
       transform="matrix(0.21259843,0,0,0.21259843,151.42136,914.30353)" />
    <g
       id="g7260"
       transform="matrix(0.21259843,0,0,0.21259843,151.42136,914.30353)" />
    <g
       id="g7262"
       transform="matrix(0.21259843,0,0,0.21259843,151.42136,914.30353)" />
    <g
       id="g7264"
       transform="matrix(0.21259843,0,0,0.21259843,151.42136,914.30353)" />
    <g
       id="g7266"
       transform="matrix(0.21259843,0,0,0.21259843,151.42136,914.30353)" />
    <g
       id="g7268"
       transform="matrix(0.21259843,0,0,0.21259843,151.42136,914.30353)" />
    <g
       id="g7270"
       transform="matrix(0.21259843,0,0,0.21259843,151.42136,914.30353)" />
    <g
       id="g7272"
       transform="matrix(0.21259843,0,0,0.21259843,151.42136,914.30353)" />
    <g
       id="g7274"
       transform="matrix(0.21259843,0,0,0.21259843,151.42136,914.30353)" />
    <g
       id="g7354"
       transform="matrix(0.21259843,0,0,0.21259843,102.93404,1060.2706)" />
    <g
       id="g7356"
       transform="matrix(0.21259843,0,0,0.21259843,102.93404,1060.2706)" />
    <g
       id="g7358"
       transform="matrix(0.21259843,0,0,0.21259843,102.93404,1060.2706)" />
    <g
       id="g7360"
       transform="matrix(0.21259843,0,0,0.21259843,102.93404,1060.2706)" />
    <g
       id="g7362"
       transform="matrix(0.21259843,0,0,0.21259843,102.93404,1060.2706)" />
    <g
       id="g7364"
       transform="matrix(0.21259843,0,0,0.21259843,102.93404,1060.2706)" />
    <g
       id="g7366"
       transform="matrix(0.21259843,0,0,0.21259843,102.93404,1060.2706)" />
    <g
       id="g7368"
       transform="matrix(0.21259843,0,0,0.21259843,102.93404,1060.2706)" />
    <g
       id="g7370"
       transform="matrix(0.21259843,0,0,0.21259843,102.93404,1060.2706)" />
    <g
       id="g7372"
       transform="matrix(0.21259843,0,0,0.21259843,102.93404,1060.2706)" />
    <g
       id="g7374"
       transform="matrix(0.21259843,0,0,0.21259843,102.93404,1060.2706)" />
    <g
       id="g7376"
       transform="matrix(0.21259843,0,0,0.21259843,102.93404,1060.2706)" />
    <g
       id="g7378"
       transform="matrix(0.21259843,0,0,0.21259843,102.93404,1060.2706)" />
    <g
       id="g7380"
       transform="matrix(0.21259843,0,0,0.21259843,102.93404,1060.2706)" />
    <g
       id="g7382"
       transform="matrix(0.21259843,0,0,0.21259843,102.93404,1060.2706)" />
  </g>
</svg>
