<?xml version="1.0" encoding="UTF-8" standalone="no"?>
<!-- Created with Inkscape (http://www.inkscape.org/) -->

<svg
   xmlns:dc="http://purl.org/dc/elements/1.1/"
   xmlns:cc="http://creativecommons.org/ns#"
   xmlns:rdf="http://www.w3.org/1999/02/22-rdf-syntax-ns#"
   xmlns:svg="http://www.w3.org/2000/svg"
   xmlns="http://www.w3.org/2000/svg"
   xmlns:sodipodi="http://sodipodi.sourceforge.net/DTD/sodipodi-0.dtd"
   xmlns:inkscape="http://www.inkscape.org/namespaces/inkscape"
   width="128"
   height="128"
   viewBox="0 0 128 128"
   id="svg2"
   version="1.1"
   inkscape:version="0.91 r13725"
   sodipodi:docname="LOGO_ensenas.svg">
  <defs
     id="defs4" />
  <sodipodi:namedview
     id="base"
     pagecolor="#ffffff"
     bordercolor="#666666"
     borderopacity="1.0"
     inkscape:pageopacity="0.0"
     inkscape:pageshadow="2"
     inkscape:zoom="1.8465466"
     inkscape:cx="63.139831"
     inkscape:cy="53.088518"
     inkscape:document-units="px"
     inkscape:current-layer="layer1"
     showgrid="false"
     units="px"
     inkscape:showpageshadow="true"
     showborder="true"
     borderlayer="true"
     inkscape:window-width="1280"
     inkscape:window-height="771"
     inkscape:window-x="0"
     inkscape:window-y="0"
     inkscape:window-maximized="1" />
  <metadata
     id="metadata7">
    <rdf:RDF>
      <cc:Work
         rdf:about="">
        <dc:format>image/svg+xml</dc:format>
        <dc:type
           rdf:resource="http://purl.org/dc/dcmitype/StillImage" />
        <dc:title></dc:title>
      </cc:Work>
    </rdf:RDF>
  </metadata>
  <g
     inkscape:label="Capa 1"
     inkscape:groupmode="layer"
     id="layer1"
     transform="translate(0,-924.3622)">
    <g
       id="g5157"
       transform="matrix(0.24636257,0,0,0.24636257,1.4239072,925.78611)" />
    <g
       id="g5159"
       transform="matrix(0.24636257,0,0,0.24636257,1.4239072,925.78611)" />
    <g
       id="g5161"
       transform="matrix(0.24636257,0,0,0.24636257,1.4239072,925.78611)" />
    <g
       id="g5163"
       transform="matrix(0.24636257,0,0,0.24636257,1.4239072,925.78611)" />
    <g
       id="g5165"
       transform="matrix(0.24636257,0,0,0.24636257,1.4239072,925.78611)" />
    <g
       id="g5167"
       transform="matrix(0.24636257,0,0,0.24636257,1.4239072,925.78611)" />
    <g
       id="g5169"
       transform="matrix(0.24636257,0,0,0.24636257,1.4239072,925.78611)" />
    <g
       id="g5171"
       transform="matrix(0.24636257,0,0,0.24636257,1.4239072,925.78611)" />
    <g
       id="g5173"
       transform="matrix(0.24636257,0,0,0.24636257,1.4239072,925.78611)" />
    <g
       id="g5175"
       transform="matrix(0.24636257,0,0,0.24636257,1.4239072,925.78611)" />
    <g
       id="g5177"
       transform="matrix(0.24636257,0,0,0.24636257,1.4239072,925.78611)" />
    <g
       id="g5179"
       transform="matrix(0.24636257,0,0,0.24636257,1.4239072,925.78611)" />
    <g
       id="g5181"
       transform="matrix(0.24636257,0,0,0.24636257,1.4239072,925.78611)" />
    <g
       id="g5183"
       transform="matrix(0.24636257,0,0,0.24636257,1.4239072,925.78611)" />
    <g
       id="g5185"
       transform="matrix(0.24636257,0,0,0.24636257,1.4239072,925.78611)" />
    <g
       id="g7021"
       transform="matrix(0.21259843,0,0,0.21259843,-87.984794,1057.2401)" />
    <g
       id="g7023"
       transform="matrix(0.21259843,0,0,0.21259843,-87.984794,1057.2401)" />
    <g
       id="g7025"
       transform="matrix(0.21259843,0,0,0.21259843,-87.984794,1057.2401)" />
    <g
       id="g7027"
       transform="matrix(0.21259843,0,0,0.21259843,-87.984794,1057.2401)" />
    <g
       id="g7029"
       transform="matrix(0.21259843,0,0,0.21259843,-87.984794,1057.2401)" />
    <g
       id="g7031"
       transform="matrix(0.21259843,0,0,0.21259843,-87.984794,1057.2401)" />
    <g
       id="g7033"
       transform="matrix(0.21259843,0,0,0.21259843,-87.984794,1057.2401)" />
    <g
       id="g7035"
       transform="matrix(0.21259843,0,0,0.21259843,-87.984794,1057.2401)" />
    <g
       id="g7037"
       transform="matrix(0.21259843,0,0,0.21259843,-87.984794,1057.2401)" />
    <g
       id="g7039"
       transform="matrix(0.21259843,0,0,0.21259843,-87.984794,1057.2401)" />
    <g
       id="g7041"
       transform="matrix(0.21259843,0,0,0.21259843,-87.984794,1057.2401)" />
    <g
       id="g7043"
       transform="matrix(0.21259843,0,0,0.21259843,-87.984794,1057.2401)" />
    <g
       id="g7045"
       transform="matrix(0.21259843,0,0,0.21259843,-87.984794,1057.2401)" />
    <g
       id="g7047"
       transform="matrix(0.21259843,0,0,0.21259843,-87.984794,1057.2401)" />
    <g
       id="g7049"
       transform="matrix(0.21259843,0,0,0.21259843,-87.984794,1057.2401)" />
    <g
       id="g7152"
       transform="matrix(0.21259843,0,0,0.21259843,-82.428955,859.25021)" />
    <g
       id="g7154"
       transform="matrix(0.21259843,0,0,0.21259843,-82.428955,859.25021)" />
    <g
       id="g7156"
       transform="matrix(0.21259843,0,0,0.21259843,-82.428955,859.25021)" />
    <g
       id="g7158"
       transform="matrix(0.21259843,0,0,0.21259843,-82.428955,859.25021)" />
    <g
       id="g7160"
       transform="matrix(0.21259843,0,0,0.21259843,-82.428955,859.25021)" />
    <g
       id="g7162"
       transform="matrix(0.21259843,0,0,0.21259843,-82.428955,859.25021)" />
    <g
       id="g7164"
       transform="matrix(0.21259843,0,0,0.21259843,-82.428955,859.25021)" />
    <g
       id="g7166"
       transform="matrix(0.21259843,0,0,0.21259843,-82.428955,859.25021)" />
    <g
       id="g7168"
       transform="matrix(0.21259843,0,0,0.21259843,-82.428955,859.25021)" />
    <g
       id="g7170"
       transform="matrix(0.21259843,0,0,0.21259843,-82.428955,859.25021)" />
    <g
       id="g7172"
       transform="matrix(0.21259843,0,0,0.21259843,-82.428955,859.25021)" />
    <g
       id="g7174"
       transform="matrix(0.21259843,0,0,0.21259843,-82.428955,859.25021)" />
    <g
       id="g7176"
       transform="matrix(0.21259843,0,0,0.21259843,-82.428955,859.25021)" />
    <g
       id="g7178"
       transform="matrix(0.21259843,0,0,0.21259843,-82.428955,859.25021)" />
    <g
       id="g7180"
       transform="matrix(0.21259843,0,0,0.21259843,-82.428955,859.25021)" />
    <g
       id="g7246"
       transform="matrix(0.21259843,0,0,0.21259843,151.42136,914.30353)" />
    <g
       id="g7248"
       transform="matrix(0.21259843,0,0,0.21259843,151.42136,914.30353)" />
    <g
       id="g7250"
       transform="matrix(0.21259843,0,0,0.21259843,151.42136,914.30353)" />
    <g
       id="g7252"
       transform="matrix(0.21259843,0,0,0.21259843,151.42136,914.30353)" />
    <g
       id="g7254"
       transform="matrix(0.21259843,0,0,0.21259843,151.42136,914.30353)" />
    <g
       id="g7256"
       transform="matrix(0.21259843,0,0,0.21259843,151.42136,914.30353)" />
    <g
       id="g7258"
       transform="matrix(0.21259843,0,0,0.21259843,151.42136,914.30353)" />
    <g
       id="g7260"
       transform="matrix(0.21259843,0,0,0.21259843,151.42136,914.30353)" />
    <g
       id="g7262"
       transform="matrix(0.21259843,0,0,0.21259843,151.42136,914.30353)" />
    <g
       id="g7264"
       transform="matrix(0.21259843,0,0,0.21259843,151.42136,914.30353)" />
    <g
       id="g7266"
       transform="matrix(0.21259843,0,0,0.21259843,151.42136,914.30353)" />
    <g
       id="g7268"
       transform="matrix(0.21259843,0,0,0.21259843,151.42136,914.30353)" />
    <g
       id="g7270"
       transform="matrix(0.21259843,0,0,0.21259843,151.42136,914.30353)" />
    <g
       id="g7272"
       transform="matrix(0.21259843,0,0,0.21259843,151.42136,914.30353)" />
    <g
       id="g7274"
       transform="matrix(0.21259843,0,0,0.21259843,151.42136,914.30353)" />
    <g
       id="g7354"
       transform="matrix(0.21259843,0,0,0.21259843,102.93404,1060.2706)" />
    <g
       id="g7356"
       transform="matrix(0.21259843,0,0,0.21259843,102.93404,1060.2706)" />
    <g
       id="g7358"
       transform="matrix(0.21259843,0,0,0.21259843,102.93404,1060.2706)" />
    <g
       id="g7360"
       transform="matrix(0.21259843,0,0,0.21259843,102.93404,1060.2706)" />
    <g
       id="g7362"
       transform="matrix(0.21259843,0,0,0.21259843,102.93404,1060.2706)" />
    <g
       id="g7364"
       transform="matrix(0.21259843,0,0,0.21259843,102.93404,1060.2706)" />
    <g
       id="g7366"
       transform="matrix(0.21259843,0,0,0.21259843,102.93404,1060.2706)" />
    <g
       id="g7368"
       transform="matrix(0.21259843,0,0,0.21259843,102.93404,1060.2706)" />
    <g
       id="g7370"
       transform="matrix(0.21259843,0,0,0.21259843,102.93404,1060.2706)" />
    <g
       id="g7372"
       transform="matrix(0.21259843,0,0,0.21259843,102.93404,1060.2706)" />
    <g
       id="g7374"
       transform="matrix(0.21259843,0,0,0.21259843,102.93404,1060.2706)" />
    <g
       id="g7376"
       transform="matrix(0.21259843,0,0,0.21259843,102.93404,1060.2706)" />
    <g
       id="g7378"
       transform="matrix(0.21259843,0,0,0.21259843,102.93404,1060.2706)" />
    <g
       id="g7380"
       transform="matrix(0.21259843,0,0,0.21259843,102.93404,1060.2706)" />
    <g
       id="g7382"
       transform="matrix(0.21259843,0,0,0.21259843,102.93404,1060.2706)" />
    <g
       id="g15302"
       transform="matrix(0.22810011,0,0,0.22810011,-192.45155,910.65617)" />
    <g
       id="g15304"
       transform="matrix(0.22810011,0,0,0.22810011,-192.45155,910.65617)" />
    <g
       id="g15306"
       transform="matrix(0.22810011,0,0,0.22810011,-192.45155,910.65617)" />
    <g
       id="g15308"
       transform="matrix(0.22810011,0,0,0.22810011,-192.45155,910.65617)" />
    <g
       id="g15310"
       transform="matrix(0.22810011,0,0,0.22810011,-192.45155,910.65617)" />
    <g
       id="g15312"
       transform="matrix(0.22810011,0,0,0.22810011,-192.45155,910.65617)" />
    <g
       id="g15314"
       transform="matrix(0.22810011,0,0,0.22810011,-192.45155,910.65617)" />
    <g
       id="g15316"
       transform="matrix(0.22810011,0,0,0.22810011,-192.45155,910.65617)" />
    <g
       id="g15318"
       transform="matrix(0.22810011,0,0,0.22810011,-192.45155,910.65617)" />
    <g
       id="g15320"
       transform="matrix(0.22810011,0,0,0.22810011,-192.45155,910.65617)" />
    <g
       id="g15322"
       transform="matrix(0.22810011,0,0,0.22810011,-192.45155,910.65617)" />
    <g
       id="g15324"
       transform="matrix(0.22810011,0,0,0.22810011,-192.45155,910.65617)" />
    <g
       id="g15326"
       transform="matrix(0.22810011,0,0,0.22810011,-192.45155,910.65617)" />
    <g
       id="g15328"
       transform="matrix(0.22810011,0,0,0.22810011,-192.45155,910.65617)" />
    <g
       id="g15330"
       transform="matrix(0.22810011,0,0,0.22810011,-192.45155,910.65617)" />
    <g
       id="g15587">
      <circle
         id="circle5147"
         r="62.576092"
         cy="988.36218"
         cx="64"
         style="fill:#ff9a00;fill-opacity:1" />
      <circle
         id="circle5147-5"
         r="58.746746"
         cy="988.36218"
         cx="64"
         style="fill:#324a5e;fill-opacity:1" />
      <path
         id="path15282"
         d="m 74.349774,959.91595 c -15.189576,0 -27.474051,8.96434 -27.474051,20.00376 0,4.8142 2.407091,9.29637 6.308239,12.7825 -1.992076,1.57706 -4.399167,3.23712 -6.806258,4.23316 -1.494057,0.58102 -1.411054,2.82211 0.166006,3.23713 1.411054,0.415 2.90511,0.664 4.399167,0.7471 3.984151,0.249 9.130356,0 13.446519,-2.40717 3.071117,0.91301 6.474246,1.41108 9.960378,1.41108 15.189586,0 27.474056,-8.96437 27.474056,-20.0038 0,-11.03942 -12.28447,-20.00376 -27.474056,-20.00376 z"
         style="fill:#ffd05b"
         inkscape:connector-curvature="0" />
      <g
         transform="matrix(0.20750797,0,0,0.20750797,9.6072905,917.41831)"
         id="g15284">
        <circle
           id="circle15286"
           r="19.200001"
           cy="303.20001"
           cx="370"
           style="fill:#324a5e" />
        <circle
           id="circle15288"
           r="19.200001"
           cy="303.20001"
           cx="308.39999"
           style="fill:#324a5e" />
        <circle
           id="circle15290"
           r="19.200001"
           cy="303.20001"
           cx="246.39999"
           style="fill:#324a5e" />
      </g>
      <path
         id="path15292"
         d="m 78.084925,940.07818 c -1.411053,-0.41501 -2.905119,-0.66402 -4.399176,-0.74702 -3.984151,-0.24901 -9.130346,0 -13.44651,2.40709 -3.071117,-0.91304 -6.474255,-1.41106 -9.960387,-1.41106 -15.189586,0 -27.474052,8.96435 -27.474052,20.00377 0,11.03943 12.284466,20.00377 27.474052,20.00377 15.189585,0 27.47406,-8.96434 27.47406,-20.00377 0,-4.81418 -2.4071,-9.29635 -6.308248,-12.78248 1.992076,-1.57706 4.399176,-3.23714 6.806267,-4.23317 1.494057,-0.58103 1.411054,-2.82211 -0.166006,-3.23713 z"
         style="fill:#e2e5e7;fill-opacity:1"
         inkscape:connector-curvature="0" />
      <g
         style="fill:#324a5e;fill-opacity:1"
         transform="matrix(0.20750797,0,0,0.20750797,9.6072905,917.41831)"
         id="g15294">
        <circle
           id="circle15296"
           r="19.200001"
           cy="204.8"
           cx="252.39999"
           style="fill:#324a5e;fill-opacity:1" />
        <circle
           id="circle15298"
           r="19.200001"
           cy="204.8"
           cx="190.8"
           style="fill:#324a5e;fill-opacity:1" />
        <circle
           id="circle15300"
           r="19.200001"
           cy="204.8"
           cx="128.8"
           style="fill:#324a5e;fill-opacity:1" />
      </g>
      <path
         d="m 108.19056,974.78526 c 0,0 3.51001,10.42971 1.30372,16.54714 0,0 -7.722,11.6332 -14.441149,12.3352 l -2.707715,0.8022 c 0,0 9.727714,-7.01997 10.429714,-9.62739 0,0 0.60172,-17.14887 2.106,-18.45258 0,-0.20057 0,-1.90543 3.30943,-1.60457 z"
         style="fill:#f9b54c"
         id="SVGCleanerId_0"
         inkscape:connector-curvature="0" />
      <path
         id="path15390"
         d="m 111.90114,992.93698 c 0,0.50142 0,0.90257 0,1.404 0,0.20057 0,0.50143 0,0.702 0,0.20057 0,0.50143 -0.10029,0.702 -0.10028,1.00285 -0.20057,2.00571 -0.40114,3.00857 -0.10029,0.50143 -0.20057,1.00286 -0.30086,1.50425 -0.10029,0.3009 -0.10029,0.5015 -0.20057,0.8023 -0.10029,0.2006 -0.10029,0.5015 -0.20057,0.702 -0.10029,0.3009 -0.10029,0.5015 -0.20057,0.8023 -0.10029,0.5014 -0.30086,1.0029 -0.50143,1.5043 -0.10029,0.2006 -0.20057,0.5014 -0.30086,0.702 -0.20057,0.5014 -0.40114,1.1031 -0.702,1.6046 -0.10029,0.3008 -0.20057,0.5014 -0.40114,0.8023 -0.20057,0.5014 -0.50143,1.0028 -0.80229,1.5042 -0.10028,0.2006 -0.20057,0.3009 -0.30086,0.5015 -1.20343,2.0057 -2.60743,4.0114 -4.41257,5.8165 -0.30086,0.3009 -0.60171,0.6018 -0.90257,0.9026 -1.10314,1.0029 -2.306573,1.9054 -3.610288,2.6074 l -10.830861,5.8166 c -0.702,0.4012 -1.303714,0.9026 -1.805143,1.404 l -2.507144,3.0086 c -1.303715,1.6046 -1.704858,3.7106 -1.103143,5.7163 l 1.103143,3.3094 3.108858,9.4269 c -6.017145,2.4068 -12.435432,3.8108 -19.254863,4.212 0.200571,-7.3209 0.200571,-17.3495 -0.802286,-22.3638 -0.100286,-0.6017 -0.200572,-1.1031 -0.300857,-1.7048 -0.200572,-1.8052 -0.100286,-3.7106 0.401143,-5.5157 0.200571,-0.8023 0.501428,-1.7049 0.802286,-2.5072 2.106,-5.1145 6.719145,-11.3323 16.848005,-13.5385 0.702,-0.2006 1.504286,-0.2006 2.206287,0 1.103143,0.2005 2.306572,0.1002 3.309429,-0.4012 0.200572,-0.1003 0.501429,-0.3008 0.802286,-0.4011 0.300858,-0.1003 0.601715,-0.3009 0.902572,-0.5015 0.200572,-0.1002 0.401143,-0.2005 0.702,-0.4011 l 0,0 0,0 c 1.905429,-1.0029 4.212002,-2.4069 6.318002,-3.8109 l 0,0 0,0 0.100286,-0.1003 c 0,0 0,0 0.100286,0 l 0,0 c 1.504282,-1.10309 2.908282,-2.20624 3.810862,-3.20909 0.10028,-0.10029 0.20057,-0.20058 0.30085,-0.40115 0.60172,-0.702 0.90258,-1.404 1.00286,-2.00571 0,0 -1.10314,-14.44115 4.71343,-15.44401 0.10029,0 0.20057,0 0.20057,0 0.10029,0 0.10029,0 0.20057,0 0.10029,0 0.10029,0 0.20058,0 l 0,0 0.10028,0 c 0,0 0.10029,0 0.20057,0.10029 0.10029,0 0.20057,0.10028 0.30086,0.20057 0.20057,0.20057 0.40114,0.50143 0.50143,0.80229 1.00286,3.40971 1.80514,7.92257 1.70486,12.73629 z"
         style="fill:#ffd05b"
         inkscape:connector-curvature="0" />
      <path
         d="m 98.563132,1000.3581 -0.100286,0.1003 c 1.203429,0.3009 2.808004,0.9026 3.209144,2.0057 0,0 0.702,2.2063 -1.60457,4.1117 0,0 -6.41829,7.4212 -11.13172,9.4269 0,0 -0.200571,0.8023 -3.710572,0.2006 l -3.710573,5.3151 4.813716,-4.8137 c 0,0 2.808001,2.2063 13.237719,-8.6246 0,-0.1003 7.02,-6.8194 -1.002858,-7.722 z"
         style="fill:#f9b54c"
         id="SVGCleanerId_1"
         inkscape:connector-curvature="0" />
      <path
         d="m 100.1677,1002.2636 c -0.802282,-0.8023 -2.105997,-0.8023 -2.908283,-0.1003 l -1.504286,1.404 2.808001,3.0085 1.504288,-1.404 c 0.80228,-0.8022 0.90257,-2.106 0.10028,-2.9082 z"
         style="fill:#ffffff"
         id="SVGCleanerId_2"
         inkscape:connector-curvature="0" />
      <g
         transform="matrix(0.25071437,0,0,0.25071437,-0.21832965,924.44181)"
         id="g15394">
        <path
           d="m 432.4,200.8 c 0,0 14,41.6 5.2,66 0,0 -30.8,46.4 -57.6,49.2 l -10.8,3.2 c 0,0 38.8,-28 41.6,-38.4 0,0 2.4,-68.4 8.4,-73.6 0,-0.8 0,-7.6 13.2,-6.4 z"
           style="fill:#f9b54c"
           id="SVGCleanerId_0_1_"
           inkscape:connector-curvature="0" />
      </g>
      <path
         id="path15397"
         d="m 111.90114,992.93698 c 0,0.50142 0,0.90257 0,1.404 0,0.20057 0,0.50143 0,0.702 0,0.20057 0,0.50143 -0.10029,0.702 -0.10028,1.00285 -0.20057,2.00571 -0.40114,3.00857 -0.10029,0.50143 -0.20057,1.00286 -0.30086,1.50425 -0.10029,0.3009 -0.10029,0.5015 -0.20057,0.8023 -0.10029,0.2006 -0.10029,0.5015 -0.20057,0.702 -0.10029,0.3009 -0.10029,0.5015 -0.20057,0.8023 -0.10029,0.5014 -0.30086,1.0029 -0.50143,1.5043 -0.10029,0.2006 -0.20057,0.5014 -0.30086,0.702 -0.20057,0.5014 -0.40114,1.1031 -0.702,1.6046 -0.10029,0.3008 -0.20057,0.5014 -0.40114,0.8023 -0.20057,0.5014 -0.50143,1.0028 -0.80229,1.5042 -0.10028,0.2006 -0.20057,0.3009 -0.30086,0.5015 -1.20343,2.0057 -2.60743,4.0114 -4.41257,5.8165 -0.30086,0.3009 -0.60171,0.6018 -0.90257,0.9026 -1.10314,1.0029 -2.306573,1.9054 -3.610288,2.6074 l -10.830861,5.8166 c -0.702,0.4012 -1.303714,0.9026 -1.805143,1.404 l -2.507144,3.0086 c -1.303715,1.6046 -1.704858,3.7106 -1.103143,5.7163 l 1.103143,3.3094 3.108858,9.4269 c -6.017145,2.4068 -12.435432,3.8108 -19.254863,4.212 0.200571,-7.3209 0.200571,-17.3495 -0.802286,-22.3638 -0.100286,-0.6017 -0.200572,-1.1031 -0.300857,-1.7048 -0.200572,-1.9054 -0.100286,-3.7106 0.401143,-5.5157 0.200571,-0.8023 0.501428,-1.7049 0.802286,-2.5072 2.106,-5.1145 6.719145,-11.3323 16.848005,-13.5385 0.702,-0.2006 1.504286,-0.2006 2.206287,0 1.103143,0.2005 2.306572,0.1002 3.309429,-0.4012 0.200572,-0.1003 0.501429,-0.3008 0.802286,-0.4011 0.300858,-0.1003 0.601715,-0.3009 0.902572,-0.5015 0.200572,-0.1002 0.401143,-0.2005 0.702,-0.4011 l 0,0 0,0 c 1.905429,-1.0029 4.212002,-2.4069 6.318002,-3.8109 l 0,0 0,0 0.100286,-0.1003 c 0,0 0,0 0.100286,0 l 0,0 c 1.504282,-1.10309 2.908282,-2.20624 3.810862,-3.20909 0.10028,-0.10029 0.20057,-0.20058 0.30085,-0.40115 0.60172,-0.702 0.90258,-1.404 1.00286,-2.00571 0,0 -1.10314,-14.44115 4.71343,-15.44401 0.10029,0 0.20057,0 0.20057,0 0.10029,0 0.10029,0 0.20057,0 0.10029,0 0.10029,0 0.20058,0 l 0,0 0.10028,0 c 0,0 0.10029,0 0.20057,0.10029 0.10029,0 0.20057,0.10028 0.30086,0.20057 0.20057,0.20057 0.40114,0.50143 0.50143,0.80229 1.00286,3.40971 1.80514,7.92257 1.70486,12.73629 z"
         style="fill:#ffd05b"
         inkscape:connector-curvature="0" />
      <g
         transform="matrix(0.25071437,0,0,0.25071437,-0.21832965,924.44181)"
         id="g15399">
        <path
           d="m 394,302.8 -0.4,0.4 c 4.8,1.2 11.2,3.6 12.8,8 0,0 2.8,8.8 -6.4,16.4 0,0 -25.6,29.6 -44.4,37.6 0,0 -0.8,3.2 -14.8,0.8 L 326,387.2 345.2,368 c 0,0 11.2,8.8 52.8,-34.4 0,-0.4 28,-27.2 -4,-30.8 z"
           style="fill:#f9b54c"
           id="SVGCleanerId_1_1_"
           inkscape:connector-curvature="0" />
      </g>
      <g
         transform="matrix(0.25071437,0,0,0.25071437,-0.21832965,924.44181)"
         id="g15402">
        <path
           d="m 400.4,310.4 c -3.2,-3.2 -8.4,-3.2 -11.6,-0.4 l -6,5.6 11.2,12 6,-5.6 c 3.2,-3.2 3.6,-8.4 0.4,-11.6 z"
           style="fill:#ffffff"
           id="SVGCleanerId_2_1_"
           inkscape:connector-curvature="0" />
      </g>
      <path
         id="path15405"
         d="m 18.735677,974.78526 c 0,0 -3.510001,10.42971 -1.303715,16.54714 0,0 7.722003,11.6332 14.441148,12.3352 l 2.707715,0.8022 c 0,0 -9.727718,-7.01997 -10.429718,-9.62739 0,0 -0.601714,-17.14887 -2.106001,-18.45258 0,-0.20057 0,-1.90543 -3.309429,-1.60457 z"
         style="fill:#f9b54c"
         inkscape:connector-curvature="0" />
      <path
         id="path15407"
         d="m 60.253976,1029.3407 c -1.002857,5.0143 -1.002857,15.0429 -0.802286,22.3637 -6.719145,-0.4011 -13.237718,-1.9054 -19.254863,-4.212 l 4.111715,-12.7363 c 0.601715,-2.0057 0.200572,-4.1117 -1.103143,-5.7163 l -2.507143,-3.0085 c -0.501429,-0.6017 -1.103144,-1.1032 -1.805144,-1.404 l -10.830861,-5.8166 c -1.303714,-0.702 -2.507143,-1.6046 -3.610287,-2.6074 -12.134575,-11.8337 -10.229146,-27.47833 -8.123145,-35.70176 0.100286,-0.40114 0.401143,-0.702 0.802286,-0.90257 0.100286,0 0.200571,-0.10028 0.200571,-0.10028 0.200572,-0.10029 0.401143,-0.10029 0.601715,0 5.716287,1.00285 4.71343,15.444 4.71343,15.444 0.300857,1.70486 2.507144,3.81086 5.214859,5.61601 0.100286,0 0.100286,0.1003 0.200571,0.1003 2.106001,1.404 4.412573,2.808 6.318002,3.8108 0.902572,0.5015 1.704858,0.9026 2.406858,1.2035 1.002858,0.5014 2.206287,0.702 3.30943,0.4011 0.702,-0.1003 1.504286,-0.1003 2.206287,0 10.12886,2.3066 14.742004,8.5243 16.948291,13.5386 1.404,3.0086 1.704858,6.4183 1.002857,9.7277 z"
         style="fill:#ffd05b"
         inkscape:connector-curvature="0" />
      <path
         id="path15409"
         d="m 28.363109,1000.3581 0.100285,0.1003 c -1.203429,0.3009 -2.808001,0.9026 -3.209144,2.0057 0,0 -0.702,2.2063 1.604572,4.1117 0,0 6.418288,7.4212 11.131718,9.4269 0,0 0.200572,0.8023 3.710573,0.2006 l 3.710573,5.3151 -4.813716,-4.8137 c 0,0 -2.808001,2.2063 -13.237719,-8.6246 0,-0.1003 -7.020002,-6.8194 1.002858,-7.722 z"
         style="fill:#f9b54c"
         inkscape:connector-curvature="0" />
      <path
         id="path15411"
         d="m 26.758537,1002.2636 c 0.802286,-0.8023 2.106,-0.8023 2.908286,-0.1003 l 1.504286,1.404 -2.808,3.0085 -1.504287,-1.404 c -0.802286,-0.8022 -0.902571,-2.106 -0.100285,-2.9082 z"
         style="fill:#ffffff"
         inkscape:connector-curvature="0" />
      <path
         id="path15413"
         d="m 83.319698,1016.7047 c -0.100285,0 -0.401143,0.2006 -0.802286,0.5014 0.200572,-0.2005 0.501429,-0.4011 0.802286,-0.5014 z"
         style="fill:#f9b54c"
         inkscape:connector-curvature="0" />
    </g>
    <g
       id="g15415"
       transform="matrix(0.25071437,0,0,0.25071437,-0.21832965,924.44181)" />
    <g
       id="g15417"
       transform="matrix(0.25071437,0,0,0.25071437,-0.21832965,924.44181)" />
    <g
       id="g15419"
       transform="matrix(0.25071437,0,0,0.25071437,-0.21832965,924.44181)" />
    <g
       id="g15421"
       transform="matrix(0.25071437,0,0,0.25071437,-0.21832965,924.44181)" />
    <g
       id="g15423"
       transform="matrix(0.25071437,0,0,0.25071437,-0.21832965,924.44181)" />
    <g
       id="g15425"
       transform="matrix(0.25071437,0,0,0.25071437,-0.21832965,924.44181)" />
    <g
       id="g15427"
       transform="matrix(0.25071437,0,0,0.25071437,-0.21832965,924.44181)" />
    <g
       id="g15429"
       transform="matrix(0.25071437,0,0,0.25071437,-0.21832965,924.44181)" />
    <g
       id="g15431"
       transform="matrix(0.25071437,0,0,0.25071437,-0.21832965,924.44181)" />
    <g
       id="g15433"
       transform="matrix(0.25071437,0,0,0.25071437,-0.21832965,924.44181)" />
    <g
       id="g15435"
       transform="matrix(0.25071437,0,0,0.25071437,-0.21832965,924.44181)" />
    <g
       id="g15437"
       transform="matrix(0.25071437,0,0,0.25071437,-0.21832965,924.44181)" />
    <g
       id="g15439"
       transform="matrix(0.25071437,0,0,0.25071437,-0.21832965,924.44181)" />
    <g
       id="g15441"
       transform="matrix(0.25071437,0,0,0.25071437,-0.21832965,924.44181)" />
    <g
       id="g15443"
       transform="matrix(0.25071437,0,0,0.25071437,-0.21832965,924.44181)" />
  </g>
</svg>
