<?xml version="1.0" encoding="UTF-8" standalone="no"?>
<!-- Created with Inkscape (http://www.inkscape.org/) -->

<svg
   xmlns:dc="http://purl.org/dc/elements/1.1/"
   xmlns:cc="http://creativecommons.org/ns#"
   xmlns:rdf="http://www.w3.org/1999/02/22-rdf-syntax-ns#"
   xmlns:svg="http://www.w3.org/2000/svg"
   xmlns="http://www.w3.org/2000/svg"
   xmlns:sodipodi="http://sodipodi.sourceforge.net/DTD/sodipodi-0.dtd"
   xmlns:inkscape="http://www.inkscape.org/namespaces/inkscape"
   width="128"
   height="128"
   viewBox="0 0 128 128"
   id="svg2"
   version="1.1"
   inkscape:version="0.91 r13725"
   sodipodi:docname="Presentacion_index.svg">
  <defs
     id="defs4" />
  <sodipodi:namedview
     id="base"
     pagecolor="#ffffff"
     bordercolor="#666666"
     borderopacity="1.0"
     inkscape:pageopacity="0.0"
     inkscape:pageshadow="2"
     inkscape:zoom="3.2304688"
     inkscape:cx="43.446287"
     inkscape:cy="35.242776"
     inkscape:document-units="px"
     inkscape:current-layer="layer1"
     showgrid="false"
     units="px"
     inkscape:showpageshadow="true"
     showborder="true"
     borderlayer="true"
     inkscape:window-width="1280"
     inkscape:window-height="771"
     inkscape:window-x="0"
     inkscape:window-y="0"
     inkscape:window-maximized="1" />
  <metadata
     id="metadata7">
    <rdf:RDF>
      <cc:Work
         rdf:about="">
        <dc:format>image/svg+xml</dc:format>
        <dc:type
           rdf:resource="http://purl.org/dc/dcmitype/StillImage" />
        <dc:title />
      </cc:Work>
    </rdf:RDF>
  </metadata>
  <g
     inkscape:label="Capa 1"
     inkscape:groupmode="layer"
     id="layer1"
     transform="translate(0,-924.3622)">
    <g
       id="g5157"
       transform="matrix(0.24636257,0,0,0.24636257,1.4239072,925.78611)" />
    <g
       id="g5159"
       transform="matrix(0.24636257,0,0,0.24636257,1.4239072,925.78611)" />
    <g
       id="g5161"
       transform="matrix(0.24636257,0,0,0.24636257,1.4239072,925.78611)" />
    <g
       id="g5163"
       transform="matrix(0.24636257,0,0,0.24636257,1.4239072,925.78611)" />
    <g
       id="g5165"
       transform="matrix(0.24636257,0,0,0.24636257,1.4239072,925.78611)" />
    <g
       id="g5167"
       transform="matrix(0.24636257,0,0,0.24636257,1.4239072,925.78611)" />
    <g
       id="g5169"
       transform="matrix(0.24636257,0,0,0.24636257,1.4239072,925.78611)" />
    <g
       id="g5171"
       transform="matrix(0.24636257,0,0,0.24636257,1.4239072,925.78611)" />
    <g
       id="g5173"
       transform="matrix(0.24636257,0,0,0.24636257,1.4239072,925.78611)" />
    <g
       id="g5175"
       transform="matrix(0.24636257,0,0,0.24636257,1.4239072,925.78611)" />
    <g
       id="g5177"
       transform="matrix(0.24636257,0,0,0.24636257,1.4239072,925.78611)" />
    <g
       id="g5179"
       transform="matrix(0.24636257,0,0,0.24636257,1.4239072,925.78611)" />
    <g
       id="g5181"
       transform="matrix(0.24636257,0,0,0.24636257,1.4239072,925.78611)" />
    <g
       id="g5183"
       transform="matrix(0.24636257,0,0,0.24636257,1.4239072,925.78611)" />
    <g
       id="g5185"
       transform="matrix(0.24636257,0,0,0.24636257,1.4239072,925.78611)" />
    <g
       id="g13729"
       inkscape:export-xdpi="90"
       inkscape:export-ydpi="90">
      <g
         transform="translate(-46,36.714312)"
         id="g13725">
        <circle
           style="fill:#ff9a00;fill-opacity:0.94117647"
           cx="110"
           cy="951.64789"
           r="62.576092"
           id="circle5147" />
        <circle
           style="fill:#324a5e;fill-opacity:1"
           cx="110"
           cy="951.64789"
           r="58.746746"
           id="circle5147-5" />
      </g>
      <g
         transform="matrix(0.13635442,0,0,0.13635442,7.016337,956.52057)"
         id="g5860">
        <g
           id="g5774">
          <path
             inkscape:connector-curvature="0"
             style="fill:#c38762"
             d="m 391.863,422.878 -0.726,-6.536 c -0.287,-2.585 -2.616,-4.449 -5.201,-4.162 l -0.407,0.045 -7.027,-56.214 c -1.529,-12.228 -9.943,-22.492 -21.634,-26.389 l -39.047,-13.016 c -5.362,-1.788 -11.244,-0.65 -15.379,2.874 L 290.94,315.646 C 284.406,313.468 280,307.354 280,300.467 l 0,-25.802 34.461,-14.359 C 332.349,252.855 344,235.378 344,216 l 0,-8 c 13.255,0 24,-10.745 24,-24 0,-4.003 -0.985,-7.774 -2.719,-11.092 1.744,-3.95 2.719,-8.314 2.719,-12.908 0,-3.24 -0.625,-6.304 -1.52,-9.251 5.871,-5.801 9.52,-13.844 9.52,-22.749 0,-3.24 -0.625,-6.304 -1.52,-9.251 C 380.352,112.948 384,104.905 384,96 384,80.609 373.127,67.774 358.648,64.711 359.441,61.924 360,59.041 360,56 360,38.327 345.673,24 328,24 321.363,24 315.199,26.022 310.087,29.482 305.72,17.005 293.968,8 280,8 272.109,8 264.979,10.965 259.399,15.7 253.818,6.337 243.693,0 232.001,0 220.309,0 210.185,6.337 204.602,15.7 199.022,10.965 191.892,8 184.001,8 170.033,8 158.281,17.005 153.914,29.482 148.801,26.022 142.637,24 136.001,24 c -17.673,0 -32,14.327 -32,32 0,3.041 0.56,5.924 1.352,8.711 C 90.873,67.774 80,80.609 80,96 c 0,8.905 3.649,16.948 9.52,22.749 C 88.625,121.696 88,124.76 88,128 c 0,8.905 3.649,16.948 9.52,22.749 C 96.625,153.696 96,156.76 96,160 c 0,4.594 0.975,8.958 2.719,12.908 C 96.986,176.226 96,179.997 96,184 c 0,13.255 10.745,24 24,24 l 0,8 c 0,19.377 11.651,36.854 29.538,44.308 l 34.462,14.359 0,25.801 c 0,6.887 -4.407,13.001 -10.94,15.179 l -11.502,3.834 c -4.135,-3.524 -10.017,-4.662 -15.379,-2.874 l -39.047,13.016 c -11.691,3.897 -20.105,14.161 -21.634,26.389 l -7.027,56.214 -0.407,-0.045 c -2.585,-0.287 -4.914,1.576 -5.201,4.162 l -0.726,6.536 c -0.287,2.585 1.576,4.914 4.161,5.201 L 88,429.38 88,448 c 0,8.836 7.164,16 16,16 l 40,0 176,0 40,0 c 8.837,0 16,-7.164 16,-16 l 0,-18.621 11.702,-1.3 c 2.585,-0.287 4.449,-2.616 4.161,-5.201 z"
             id="path5776" />
          <path
             inkscape:connector-curvature="0"
             style="fill:#623f33"
             d="M 374.481,118.749 C 380.352,112.948 384,104.905 384,96 384,80.609 373.127,67.774 358.648,64.711 359.441,61.924 360,59.041 360,56 360,38.327 345.673,24 328,24 321.363,24 315.199,26.022 310.087,29.482 305.72,17.005 293.968,8 280,8 272.109,8 264.979,10.965 259.399,15.7 253.818,6.337 243.693,0 232.001,0 220.309,0 210.185,6.337 204.602,15.7 199.022,10.965 191.892,8 184.001,8 170.033,8 158.281,17.005 153.914,29.482 148.801,26.022 142.637,24 136.001,24 c -17.673,0 -32,14.327 -32,32 0,3.041 0.56,5.924 1.352,8.711 C 90.873,67.774 80,80.609 80,96 c 0,8.905 3.649,16.948 9.52,22.749 C 88.625,121.696 88,124.76 88,128 c 0,8.905 3.649,16.948 9.52,22.749 C 96.625,153.696 96,156.76 96,160 c 0,17.673 14.327,32 32,32 0.003,0 0.006,0 0.01,0 l 207.981,0 c 0.003,0 0.006,0 0.01,0 17.673,0 32,-14.327 32,-32 0,-3.24 -0.625,-6.304 -1.52,-9.251 5.871,-5.801 9.52,-13.844 9.52,-22.749 -10e-4,-3.24 -0.625,-6.304 -1.52,-9.251 z"
             id="path5778" />
          <g
             id="g5780">
            <path
               inkscape:connector-curvature="0"
               style="fill:#ffd739"
               d="m 320,464.001 0,-40 67,0 -8.499,-67.989 c -1.529,-12.228 -9.943,-22.492 -21.634,-26.389 L 317.82,316.607 c -6.8,-2.267 -14.45,0.154 -18.291,6.206 -14.18,22.344 -39.105,37.187 -67.528,37.187 -28.423,0 -53.349,-14.844 -67.53,-37.188 -3.841,-6.052 -11.491,-8.473 -18.291,-6.206 l -39.047,13.016 c -11.691,3.897 -20.105,14.161 -21.634,26.389 l -7.609,60.872 66.111,7.117 0,40 176,0 0,10e-4 z"
               id="path5782" />
          </g>
          <g
             id="g5784">
            <path
               inkscape:connector-curvature="0"
               style="fill:#a46d4d"
               d="m 280,274.667 -96,-21.334 0,47.135 c 0,5.759 -3.186,10.831 -8.017,13.659 C 243.077,325.871 280,274.667 280,274.667 Z"
               id="path5786" />
          </g>
          <path
             inkscape:connector-curvature="0"
             style="fill:#d29771"
             d="m 344,160 0,-24 c 0,-22.091 -17.909,-48 -40,-48 l -144,0 c -22.092,0 -40,25.909 -40,48 l 0,24 c -13.255,0 -24,10.746 -24,24 0,13.255 10.745,24 24,24 l 0,8 c 0,19.377 11.651,36.854 29.538,44.308 l 51.691,21.538 C 210.98,285.909 221.438,288 232,288 l 0,0 c 10.562,0 21.019,-2.092 30.769,-6.154 l 51.694,-21.539 C 332.349,252.855 344,235.378 344,216 l 0,-8 c 13.255,0 24,-10.745 24,-24 0,-13.255 -10.745,-24 -24,-24 z"
             id="path5788" />
          <g
             id="g5790">
            <path
               inkscape:connector-curvature="0"
               style="fill:#623f33"
               d="m 176.001,192 0,0 c -4.4,0 -8,-3.6 -8,-8 l 0,-8 c 0,-4.4 3.6,-8 8,-8 l 0,0 c 4.4,0 8,3.6 8,8 l 0,8 c 0,4.4 -3.601,8 -8,8 z"
               id="path5792" />
          </g>
          <g
             id="g5794">
            <path
               inkscape:connector-curvature="0"
               style="fill:#623f33"
               d="m 288,192 0,0 c -4.4,0 -8,-3.6 -8,-8 l 0,-8 c 0,-4.4 3.6,-8 8,-8 l 0,0 c 4.4,0 8,3.6 8,8 l 0,8 c 0,4.4 -3.6,8 -8,8 z"
               id="path5796" />
          </g>
          <g
             id="g5798">
            <g
               id="g5800">
              <path
                 inkscape:connector-curvature="0"
                 style="fill:#a46d4d"
                 d="m 232.001,248.219 c -14.223,0 -27.527,-3.5 -36.5,-9.605 -3.652,-2.484 -4.601,-7.461 -2.113,-11.113 2.48,-3.648 7.461,-4.598 11.113,-2.113 6.289,4.277 16.57,6.832 27.5,6.832 10.93,0 21.211,-2.555 27.5,-6.832 3.66,-2.492 8.629,-1.539 11.113,2.113 2.488,3.652 1.539,8.629 -2.113,11.113 -8.972,6.105 -22.277,9.605 -36.5,9.605 z"
                 id="path5802" />
            </g>
          </g>
          <g
             id="g5804">
            <path
               inkscape:connector-curvature="0"
               style="fill:#ffc33d"
               d="m 144.001,430.04 0,-18.106 c 0,-7.697 -2.774,-15.135 -7.813,-20.953 L 92.169,340.168 c -3.552,4.497 -5.93,9.93 -6.669,15.843 l -8.356,66.847 c 12.723,0.764 46.567,4.729 66.857,7.182 z"
               id="path5806" />
          </g>
          <g
             id="g5808">
            <path
               inkscape:connector-curvature="0"
               style="fill:#ffb440"
               d="m 144.001,419.507 -65.936,-7.326 c -2.586,-0.287 -4.914,1.576 -5.202,4.161 l -0.726,6.536 c -0.287,2.585 1.576,4.914 4.161,5.201 l 67.703,7.523 0,-16.095 z"
               id="path5810" />
          </g>
          <g
             id="g5812">
            <path
               inkscape:connector-curvature="0"
               style="fill:#ffc33d"
               d="m 320,430.04 0,-18.106 c 0,-7.697 2.774,-15.135 7.813,-20.953 l 44.019,-50.813 c 3.552,4.497 5.93,9.93 6.669,15.843 l 8.356,66.847 c -12.723,0.764 -46.568,4.729 -66.857,7.182 z"
               id="path5814" />
          </g>
          <g
             id="g5816">
            <path
               inkscape:connector-curvature="0"
               style="fill:#ffb440"
               d="m 320,419.507 65.936,-7.326 c 2.586,-0.287 4.914,1.576 5.202,4.161 l 0.726,6.536 c 0.287,2.585 -1.576,4.914 -4.161,5.201 l -67.703,7.523 0,-16.095 z"
               id="path5818" />
          </g>
          <path
             inkscape:connector-curvature="0"
             style="fill:#c38762"
             d="m 120,89 0,71 c -13.255,0 -24,10.745 -24,24 0,13.255 10.745,24 24,24 l 0,8 c 0,19.378 11.651,36.855 29.538,44.308 l 51.69,21.538 c 2.53,1.054 5.112,1.962 7.727,2.749 -22.844,-16.711 -38.05,-31.32 -46.96,-40.872 C 155.513,236.773 152,227.602 152,218.098 l 0,-90.325 c 8.515,-0.949 16.116,-4.883 21.783,-10.713 4.364,1.88 9.164,2.94 14.217,2.94 10.997,0 20.719,-5.036 27.322,-12.806 4.869,2.993 10.544,4.806 16.678,4.806 8.215,0 15.629,-3.186 21.296,-8.274 6.211,5.092 14.047,8.274 22.704,8.274 15.284,0 28.248,-9.555 33.445,-23 L 120,89 Z"
             id="path5820" />
          <path
             inkscape:connector-curvature="0"
             style="fill:#623f33"
             d="m 344,96 c -0.52,0 -1.005,0.12 -1.517,0.153 C 343.411,93.597 344,90.876 344,88 344,74.745 333.255,64 320,64 c -2.911,0 -5.666,0.597 -8.248,1.546 C 310.469,46.831 295.042,32 276,32 259.607,32 245.929,43.025 241.579,58.015 238.641,56.732 235.41,56 232,56 223.021,56 215.288,60.989 211.172,68.29 206.135,60.875 197.64,56 188.001,56 176.545,56 166.728,62.898 162.392,72.75 157.99,67.448 151.43,64 144.001,64 135.084,64 127.309,68.866 123.171,76.084 122.621,76.029 122.064,76 121.5,76 112.387,76 105,83.387 105,92.5 c 0,2.688 0.656,5.218 1.797,7.461 C 100.294,104.254 96,111.624 96,120 c 0,13.255 10.745,24 24,24 13.255,0 24,-10.745 24,-24 0,-2.876 -0.589,-5.597 -1.517,-8.153 0.512,0.033 0.998,0.153 1.517,0.153 8.979,0 16.713,-4.989 20.828,-12.29 5.037,7.415 13.534,12.29 23.172,12.29 11.456,0 21.273,-6.898 25.609,-16.75 4.402,5.302 10.96,8.75 18.391,8.75 7.963,0 14.967,-3.922 19.333,-9.893 6.45,6.094 15.094,9.893 24.667,9.893 8.167,0 15.613,-2.824 21.654,-7.407 3.463,8.996 12.129,15.407 22.346,15.407 0.52,0 1.005,-0.12 1.517,-0.153 -0.928,2.556 -1.517,5.277 -1.517,8.153 0,13.255 10.745,24 24,24 13.255,0 24,-10.745 24,-24 0,-13.255 -10.745,-24 -24,-24 z"
             id="path5822" />
        </g>
        <g
           id="g5824" />
        <g
           id="g5826" />
        <g
           id="g5828" />
        <g
           id="g5830" />
        <g
           id="g5832" />
        <g
           id="g5834" />
        <g
           id="g5836" />
        <g
           id="g5838" />
        <g
           id="g5840" />
        <g
           id="g5842" />
        <g
           id="g5844" />
        <g
           id="g5846" />
        <g
           id="g5848" />
        <g
           id="g5850" />
        <g
           id="g5852" />
      </g>
      <g
         transform="matrix(0.16895953,0,0,0.16895953,41.7769,949.96642)"
         id="g6398">
        <g
           id="g6270">
          <path
             inkscape:connector-curvature="0"
             style="fill:#ffd7a3"
             d="M 370.802,365.011 C 369.05,351.869 360.9,340.45 349.041,334.521 l -17.232,-8.616 c -2.567,-1.284 -5.51,-0.145 -6.766,2.29 L 316.36,325 C 376.227,308.691 408,280 408,280 376.5,218.5 385,125 360,72 335,19 288,0 232,0 176,0 129,19 104,72 79,125 87.5,218.5 56,280 c 0,0 31.774,28.69 91.641,44.999 l -8.682,3.195 c -1.242,-2.438 -4.18,-3.584 -6.742,-2.303 l -15.714,7.857 c -13.41,6.705 -21.552,18.121 -23.304,31.262 l -0.388,2.908 c 0,10e-4 0,10e-4 0,10e-4 l -9.188,68.908 C 81.705,451.216 92.898,464 107.413,464 l 249.175,0 c 14.515,0 25.708,-12.784 23.789,-27.172 l -9.575,-71.817 z"
             id="path6272" />
          <g
             id="g6274">
            <path
               inkscape:connector-curvature="0"
               style="fill:#9d6e48"
               d="M 360,72 C 335,19 288,0 232,0 176,0 129,19 104,72 79,125 87.5,218.5 56,280 c 0,0 62,56 176,56 114,0 176,-56 176,-56 C 376.5,218.5 385,125 360,72 Z"
               id="path6276" />
          </g>
          <path
             inkscape:connector-curvature="0"
             style="fill:#8d5f3d"
             d="M 184,143 C 184,87 204.909,34.707 247.137,0.55 242.164,0.219 237.135,0 232,0 176,0 129,19 104,72 79,125 87.5,218.5 56,280 c 0,0 45.431,39.895 128,52.264 0,10e-4 0,-145.264 0,-189.264 z"
             id="path6278" />
          <g
             id="g6280">
            <path
               inkscape:connector-curvature="0"
               style="fill:#ffd7a3"
               d="m 371.19,367.921 c -1.962,-14.712 -11.908,-27.128 -25.837,-32.253 l -54.412,-20.02 c -6.533,-2.178 -10.94,-8.292 -10.94,-15.179 l 0,-52.469 -96,0 0,52.468 c 0,6.887 -4.407,13.001 -10.94,15.179 l -54.412,20.02 c -13.929,5.125 -23.875,17.541 -25.837,32.253 l -9.188,68.908 C 81.706,451.216 92.899,464 107.413,464 l 249.176,0 c 14.515,0 25.708,-12.784 23.789,-27.172 l -9.188,-68.907 z"
               id="path6282" />
            <path
               inkscape:connector-curvature="0"
               style="fill:#fdc88e"
               d="m 184,300.469 c 0,0.391 -0.017,0.777 -0.046,1.161 -0.014,0.2 -0.04,0.396 -0.062,0.595 -0.018,0.16 -0.034,0.32 -0.057,0.478 -0.043,0.307 -0.098,0.609 -0.158,0.911 -0.001,0.006 -0.002,0.013 -0.004,0.019 -0.888,4.4 -3.587,8.228 -7.424,10.538 C 243.173,325.732 280,274.667 280,274.667 L 184,274 l 0,26.469 0,0 0,0 z"
               id="path6284" />
          </g>
          <path
             inkscape:connector-curvature="0"
             style="fill:#ffe1b2"
             d="m 344,160 0,-16 c 0,-22.091 -17.909,-40 -40,-40 l -144,0 c -22.091,0 -40,17.909 -40,40 l 0,16 c -13.255,0 -24,10.746 -24,24 0,13.255 10.745,24 24,24 l 0,8 c 0,19.377 11.651,36.854 29.538,44.308 l 51.691,21.538 c 9.75,4.063 20.208,6.154 30.77,6.154 l 0,0 c 10.562,0 21.019,-2.092 30.769,-6.154 l 51.694,-21.539 C 332.349,252.855 344,235.378 344,216 l 0,-8 c 13.255,0 24,-10.745 24,-24 0,-13.255 -10.745,-24 -24,-24 z"
             id="path6286" />
          <path
             inkscape:connector-curvature="0"
             style="fill:#ffd7a3"
             d="M 302,127.625 302,107 144.811,107 C 130.255,112.981 120,127.288 120,144 l 0,16 c -13.255,0 -24,10.745 -24,24 0,13.255 10.745,24 24,24 l 0,8 c 0,19.378 11.651,36.855 29.538,44.308 l 51.69,21.538 c 2.53,1.054 5.112,1.962 7.727,2.749 -22.844,-16.711 -38.05,-31.32 -46.96,-40.872 C 155.513,236.773 152,227.602 152,218.098 l 0,-58.21 c 25.806,-0.635 107.684,-4.821 150,-32.263 z"
             id="path6288" />
          <g
             id="g6290">
            <path
               inkscape:connector-curvature="0"
               style="fill:#623f33"
               d="m 176,192 0,0 c -4.4,0 -8,-3.6 -8,-8 l 0,-8 c 0,-4.4 3.6,-8 8,-8 l 0,0 c 4.4,0 8,3.6 8,8 l 0,8 c 0,4.4 -3.6,8 -8,8 z"
               id="path6292" />
          </g>
          <g
             id="g6294">
            <path
               inkscape:connector-curvature="0"
               style="fill:#623f33"
               d="m 288,192 0,0 c -4.4,0 -8,-3.6 -8,-8 l 0,-8 c 0,-4.4 3.6,-8 8,-8 l 0,0 c 4.4,0 8,3.6 8,8 l 0,8 c 0,4.4 -3.6,8 -8,8 z"
               id="path6296" />
          </g>
          <g
             id="g6298">
            <g
               id="g6300">
              <path
                 inkscape:connector-curvature="0"
                 style="fill:#e4b07b"
                 d="m 232,248.219 c -14.223,0 -27.527,-3.5 -36.5,-9.605 -3.652,-2.484 -4.602,-7.461 -2.113,-11.113 2.48,-3.648 7.461,-4.598 11.113,-2.113 6.289,4.277 16.57,6.832 27.5,6.832 10.93,0 21.211,-2.555 27.5,-6.832 3.66,-2.492 8.629,-1.539 11.113,2.113 2.488,3.652 1.539,8.629 -2.113,11.113 -8.972,6.105 -22.277,9.605 -36.5,9.605 z"
                 id="path6302" />
            </g>
          </g>
          <path
             inkscape:connector-curvature="0"
             style="fill:#9d6e48"
             d="m 136,144 c 0,0 51,5 80,-8 4.081,-1.829 16,-28 16,-28 l 0,36 c 0,0 36.786,-1.903 75,-17.326 L 307,98 130.55,98 c 3.633,18.297 5.45,46 5.45,46 z"
             id="path6304" />
          <g
             id="g6306">
            <path
               inkscape:connector-curvature="0"
               style="fill:#ff6473"
               d="m 349.041,334.521 -17.232,-8.616 c -2.92,-1.46 -6.327,0.212 -7.184,3.362 -11.09,40.761 -48.352,70.736 -92.626,70.736 -44.285,0 -81.555,-29.99 -92.635,-70.767 -0.852,-3.134 -4.242,-4.797 -7.146,-3.345 l -15.714,7.857 c -13.41,6.705 -21.552,18.121 -23.304,31.262 l -9.576,71.817 c -1.918,14.388 9.275,27.172 23.789,27.172 l 249.176,0 c 14.515,0 25.708,-12.784 23.789,-27.172 L 370.802,365.01 C 369.05,351.87 360.9,340.45 349.041,334.521 Z"
               id="path6308" />
          </g>
          <g
             id="g6310">
            <path
               inkscape:connector-curvature="0"
               style="fill:#f05467"
               d="m 96.843,353.124 c -1.813,3.734 -3.087,7.708 -3.645,11.887 l -9.576,71.817 C 81.704,451.216 92.897,464 107.412,464 l 36.588,0 0,-32 c 0,-10.386 -3.369,-20.491 -9.6,-28.8 L 96.843,353.124 Z"
               id="path6312" />
          </g>
          <g
             id="g6314">
            <path
               inkscape:connector-curvature="0"
               style="fill:#f05467"
               d="m 367.157,353.124 c 1.813,3.734 3.087,7.708 3.645,11.887 l 9.576,71.817 C 382.296,451.216 371.103,464 356.588,464 l -36.588,0 0,-32 c 0,-10.386 3.368,-20.491 9.6,-28.8 l 37.557,-50.076 z"
               id="path6316" />
          </g>
          <g
             id="g6318">
            <g
               id="g6320">
              <path
                 inkscape:connector-curvature="0"
                 style="fill:#bd445a"
                 d="m 332,103.649 c 0,10.77 -21.73,19.5 -32.5,19.5 -10.77,0 -19.5,-8.73 -19.5,-19.5 0,-10.77 8.73,-19.5 19.5,-19.5 10.77,0 32.5,8.731 32.5,19.5 z"
                 id="path6322" />
            </g>
          </g>
          <g
             id="g6324">
            <g
               id="g6326">
              <path
                 inkscape:connector-curvature="0"
                 style="fill:#bd445a"
                 d="m 332,103.649 c 0,-10.77 21.73,-19.5 32.5,-19.5 10.77,0 19.5,8.73 19.5,19.5 0,10.77 -8.73,19.5 -19.5,19.5 -10.77,0 -32.5,-8.73 -32.5,-19.5 z"
                 id="path6328" />
            </g>
          </g>
          <g
             id="g6330">
            <g
               id="g6332">
              <path
                 inkscape:connector-curvature="0"
                 style="fill:#ff6473"
                 d="m 332,103.649 c 9.327,5.385 6.022,28.569 0.638,37.896 -5.385,9.327 -17.311,12.522 -26.638,7.138 -9.327,-5.384 -12.522,-17.311 -7.138,-26.638 5.386,-9.327 23.812,-23.781 33.138,-18.396 z"
                 id="path6334" />
            </g>
          </g>
          <g
             id="g6336">
            <g
               id="g6338">
              <path
                 inkscape:connector-curvature="0"
                 style="fill:#ff6473"
                 d="m 332,103.649 c -9.327,-5.385 -6.022,-28.569 -0.637,-37.896 5.385,-9.327 17.311,-12.522 26.638,-7.138 9.327,5.384 12.522,17.311 7.138,26.638 -5.386,9.327 -23.812,23.781 -33.139,18.396 z"
                 id="path6340" />
            </g>
          </g>
          <g
             id="g6342">
            <g
               id="g6344">
              <path
                 inkscape:connector-curvature="0"
                 style="fill:#f05467"
                 d="m 332,103.649 c -9.327,5.385 -6.022,28.569 -0.637,37.896 5.385,9.327 17.311,12.522 26.638,7.138 9.327,-5.384 12.522,-17.311 7.138,-26.638 C 359.753,112.718 341.327,98.264 332,103.649 Z"
                 id="path6346" />
            </g>
          </g>
          <g
             id="g6348">
            <g
               id="g6350">
              <path
                 inkscape:connector-curvature="0"
                 style="fill:#f05467"
                 d="m 332,103.649 c 9.327,-5.385 6.022,-28.569 0.638,-37.896 -5.385,-9.327 -17.311,-12.522 -26.638,-7.138 -9.327,5.384 -12.522,17.311 -7.138,26.638 5.386,9.327 23.812,23.781 33.138,18.396 z"
                 id="path6352" />
            </g>
          </g>
          <g
             id="g6354">
            <g
               id="g6356">
              <circle
                 style="fill:#ffffff"
                 cx="332"
                 cy="103.649"
                 r="13"
                 id="circle6358" />
            </g>
          </g>
          <path
             inkscape:connector-curvature="0"
             style="fill:#8d5f3d"
             d="m 130.546,98 c 3.635,18.297 5.455,46 5.455,46 0,0 23.071,2.249 47,-0.225 0,-0.256 0,-0.525 0,-0.775 0,-15.386 1.7,-30.476 4.981,-45 l -57.436,0 z"
             id="path6360" />
        </g>
        <g
           id="g6362" />
        <g
           id="g6364" />
        <g
           id="g6366" />
        <g
           id="g6368" />
        <g
           id="g6370" />
        <g
           id="g6372" />
        <g
           id="g6374" />
        <g
           id="g6376" />
        <g
           id="g6378" />
        <g
           id="g6380" />
        <g
           id="g6382" />
        <g
           id="g6384" />
        <g
           id="g6386" />
        <g
           id="g6388" />
        <g
           id="g6390" />
      </g>
      <text
         sodipodi:linespacing="125%"
         id="text6461"
         y="1026.6479"
         x="69.285713"
         style="font-style:normal;font-weight:normal;font-size:40px;line-height:125%;font-family:sans-serif;letter-spacing:0px;word-spacing:0px;fill:#1a1a1a;fill-opacity:1;stroke:none;stroke-width:1px;stroke-linecap:butt;stroke-linejoin:miter;stroke-opacity:1;"
         xml:space="preserve"><tspan
           style="font-size:11.25px;fill:#1a1a1a;"
           y="1026.6479"
           x="69.285713"
           id="tspan6463"
           sodipodi:role="line">Ana</tspan></text>
      <text
         sodipodi:linespacing="125%"
         id="text6461-0"
         y="1014.9547"
         x="30.675619"
         style="font-style:normal;font-weight:normal;font-size:40px;line-height:125%;font-family:sans-serif;letter-spacing:0px;word-spacing:0px;fill:#1a1a1a;fill-opacity:1;stroke:none;stroke-width:1px;stroke-linecap:butt;stroke-linejoin:miter;stroke-opacity:1"
         xml:space="preserve"><tspan
           style="font-size:7.5px;fill:#1a1a1a"
           y="1014.9547"
           x="30.675619"
           id="tspan6463-8"
           sodipodi:role="line">Luis</tspan></text>
    </g>
  </g>
</svg>
