<?xml version="1.0" encoding="UTF-8" standalone="no"?>
<!-- Created with Inkscape (http://www.inkscape.org/) -->

<svg
   xmlns:dc="http://purl.org/dc/elements/1.1/"
   xmlns:cc="http://creativecommons.org/ns#"
   xmlns:rdf="http://www.w3.org/1999/02/22-rdf-syntax-ns#"
   xmlns:svg="http://www.w3.org/2000/svg"
   xmlns="http://www.w3.org/2000/svg"
   xmlns:sodipodi="http://sodipodi.sourceforge.net/DTD/sodipodi-0.dtd"
   xmlns:inkscape="http://www.inkscape.org/namespaces/inkscape"
   width="128"
   height="128"
   viewBox="0 0 128 128"
   id="svg2"
   version="1.1"
   inkscape:version="0.91 r13725"
   sodipodi:docname="saludos_index.svg"
   inkscape:export-filename="/home/kirschcobric/Documentos/PROYECTOS/ENSEÑAS/DISEÑOS/saludos_index.svg"
   inkscape:export-xdpi="90"
   inkscape:export-ydpi="90">
  <defs
     id="defs4" />
  <sodipodi:namedview
     id="base"
     pagecolor="#ffffff"
     bordercolor="#666666"
     borderopacity="1.0"
     inkscape:pageopacity="0.0"
     inkscape:pageshadow="2"
     inkscape:zoom="1.979899"
     inkscape:cx="39.852409"
     inkscape:cy="71.783473"
     inkscape:document-units="px"
     inkscape:current-layer="layer1"
     showgrid="false"
     units="px"
     inkscape:showpageshadow="true"
     showborder="true"
     borderlayer="true"
     inkscape:window-width="1280"
     inkscape:window-height="771"
     inkscape:window-x="0"
     inkscape:window-y="0"
     inkscape:window-maximized="1" />
  <metadata
     id="metadata7">
    <rdf:RDF>
      <cc:Work
         rdf:about="">
        <dc:format>image/svg+xml</dc:format>
        <dc:type
           rdf:resource="http://purl.org/dc/dcmitype/StillImage" />
        <dc:title />
      </cc:Work>
    </rdf:RDF>
  </metadata>
  <g
     inkscape:label="Capa 1"
     inkscape:groupmode="layer"
     id="layer1"
     transform="translate(0,-924.3622)">
    <g
       id="g13713"
       transform="translate(-46.611702,15.296953)">
      <circle
         id="circle5147"
         r="62.576092"
         cy="973.06525"
         cx="110.6117"
         style="fill:#ff9a00;fill-opacity:0.94117647" />
      <circle
         id="circle5147-5"
         r="58.746746"
         cy="973.06525"
         cx="110.6117"
         style="fill:#324a5e;fill-opacity:1" />
    </g>
    <path
       inkscape:connector-curvature="0"
       style="fill:#f9b54c"
       d="m 45.670625,959.98123 c 2.069445,-0.59127 4.237436,0.59127 4.927251,2.56218 l 4.040346,12.31812 c 0.09855,0.19709 0.295635,0.39418 0.59127,0.29564 0.197091,-0.0985 0.394181,-0.29564 0.295636,-0.59127 l -6.602517,-19.70901 c -0.59127,-1.9709 0.09854,-4.13889 1.9709,-5.12434 2.365081,-1.18254 5.025797,0 5.814157,2.36508 l 5.912702,17.9352 c 0.09855,0.19709 0.295635,0.39418 0.59127,0.29563 0.19709,-0.0985 0.39418,-0.29563 0.295635,-0.59127 l -7.686512,-23.45371 c -0.689816,-2.26654 0.492725,-4.63162 2.660715,-5.41998 l 0.09854,0 c 0.09855,0 0.295636,-0.0986 0.394181,-0.0986 2.069445,-0.39418 4.040346,0.98545 4.730161,3.0549 l 7.982147,24.53771 c 0.09855,0.19709 0.295635,0.39418 0.59127,0.29564 0.19709,-0.0985 0.39418,-0.29564 0.295635,-0.59127 l -7.095242,-22.27118 c -0.78836,-2.36508 0.591271,-4.82871 2.956351,-5.51852 2.167991,-0.59127 4.533072,0.59127 5.222887,2.75926 l 8.573417,25.32607 c 0.492725,-4.92725 1.872356,-9.46032 4.533071,-12.31813 1.379631,-1.47817 4.040347,-0.68981 5.124342,0.98545 0.492725,0.68982 0.886905,1.87236 0.59127,3.25199 0,0 -3.054896,5.32143 0.492725,13.99339 3.547621,8.57342 -3.744711,21.97555 -3.744711,21.97555 -2.365081,5.32139 4.631616,24.93189 4.631616,24.93189 l -21.285726,6.0112 c -3.251986,-9.1646 -11.234133,-21.3842 -11.234133,-21.3842 l -3.350531,-5.3215 c -3.843256,-6.10975 -6.996697,-12.71227 -9.361777,-19.51187 l -5.617067,-16.06284 c -0.78836,-1.9709 0.39418,-4.33599 2.660716,-4.92726 z"
       id="path5149" />
    <path
       inkscape:connector-curvature="0"
       style="fill:#e6e9ee"
       d="m 73.361778,1050.2485 c 12.515218,-1.8724 23.749351,-7.3909 32.618402,-15.4716 l -9.657411,-25.7202 -33.209674,13.8948 10.248683,27.297 z"
       id="path5151" />
    <path
       inkscape:connector-curvature="0"
       style="fill:#ffd05b"
       d="m 77.599214,959.19287 c -2.069446,-0.49272 -4.237436,0.68982 -4.828707,2.75927 l -3.744711,12.41667 c -0.09855,0.19709 -0.295635,0.39418 -0.59127,0.29563 -0.19709,-0.0985 -0.39418,-0.29563 -0.295635,-0.59127 l 6.011247,-19.90609 c 0.59127,-1.9709 -0.19709,-4.13889 -2.069446,-5.0258 -2.36508,-1.08399 -5.025796,0.0985 -5.715611,2.46363 l -5.518522,18.03374 c -0.09855,0.19709 -0.295635,0.39418 -0.59127,0.29563 -0.19709,-0.0985 -0.295635,-0.29563 -0.19709,-0.49272 l 7.095242,-23.55226 c 0.689815,-2.26654 -0.59127,-4.63162 -2.857806,-5.32144 l -0.09855,0 c -0.09855,0 -0.295635,-0.0985 -0.39418,-0.0985 -2.069446,-0.29564 -4.040346,1.18254 -4.631616,3.15344 l -7.390877,24.7348 c -0.09855,0.19709 -0.295636,0.39418 -0.591271,0.29564 -0.19709,-0.0985 -0.39418,-0.29564 -0.295635,-0.59127 l 6.602517,-22.46827 c 0.689815,-2.36508 -0.689815,-4.82871 -3.054896,-5.41998 -2.266535,-0.59127 -4.533071,0.68982 -5.222886,2.85781 l -7.883602,25.62171 c -0.591271,-4.92725 -2.069446,-9.46033 -4.828707,-12.21959 -1.37963,-1.47817 -4.040346,-0.49272 -5.124341,1.18254 -0.492725,0.78836 -0.788361,1.9709 -0.492725,3.25199 0,0 3.15344,5.22289 -0.19709,13.99339 -3.350531,8.67197 4.335981,21.877 4.335981,21.877 2.463625,5.22287 -3.941801,25.12897 -3.941801,25.12897 l 21.384271,5.5185 c 3.054896,-9.2632 10.642863,-21.6799 10.642863,-21.6799 l 3.251986,-5.4199 c 3.744711,-6.20839 6.701062,-12.8109 8.869052,-19.70905 l 5.124342,-16.16139 c 0.78836,-2.36508 -0.492726,-4.63162 -2.759261,-5.22289 z"
       id="path5153" />
    <path
       inkscape:connector-curvature="0"
       style="fill:#ff7058"
       d="m 20.048917,1032.9046 c 8.671963,8.5734 19.807551,14.5846 32.224225,16.9497 l 9.460322,-27.1984 -33.603854,-13.1065 -8.080693,23.3552 z"
       id="path5155" />
    <g
       id="g5157"
       transform="matrix(0.24636257,0,0,0.24636257,1.4239072,925.78611)" />
    <g
       id="g5159"
       transform="matrix(0.24636257,0,0,0.24636257,1.4239072,925.78611)" />
    <g
       id="g5161"
       transform="matrix(0.24636257,0,0,0.24636257,1.4239072,925.78611)" />
    <g
       id="g5163"
       transform="matrix(0.24636257,0,0,0.24636257,1.4239072,925.78611)" />
    <g
       id="g5165"
       transform="matrix(0.24636257,0,0,0.24636257,1.4239072,925.78611)" />
    <g
       id="g5167"
       transform="matrix(0.24636257,0,0,0.24636257,1.4239072,925.78611)" />
    <g
       id="g5169"
       transform="matrix(0.24636257,0,0,0.24636257,1.4239072,925.78611)" />
    <g
       id="g5171"
       transform="matrix(0.24636257,0,0,0.24636257,1.4239072,925.78611)" />
    <g
       id="g5173"
       transform="matrix(0.24636257,0,0,0.24636257,1.4239072,925.78611)" />
    <g
       id="g5175"
       transform="matrix(0.24636257,0,0,0.24636257,1.4239072,925.78611)" />
    <g
       id="g5177"
       transform="matrix(0.24636257,0,0,0.24636257,1.4239072,925.78611)" />
    <g
       id="g5179"
       transform="matrix(0.24636257,0,0,0.24636257,1.4239072,925.78611)" />
    <g
       id="g5181"
       transform="matrix(0.24636257,0,0,0.24636257,1.4239072,925.78611)" />
    <g
       id="g5183"
       transform="matrix(0.24636257,0,0,0.24636257,1.4239072,925.78611)" />
    <g
       id="g5185"
       transform="matrix(0.24636257,0,0,0.24636257,1.4239072,925.78611)" />
  </g>
</svg>
